<svg xmlns="http://www.w3.org/2000/svg" width="169" height="22" viewBox="0 0 169 22">
    <defs>
        <filter id="03nmcpx5aa" color-interpolation-filters="auto">
            <feColorMatrix in="SourceGraphic" values="0 0 0 0 0.090196 0 0 0 0 0.070588 0 0 0 0 0.121569 0 0 0 1.000000 0"/>
        </filter>
    </defs>
    <g fill="none" fill-rule="evenodd">
        <g filter="url(#03nmcpx5aa)" transform="translate(-320.000000, -4588.000000)">
            <g>
                <g fill="#000" fill-rule="nonzero">
                    <path d="M158.45 15.634c0-.702.367-.843 1.01-.468l2.476 1.404c.046-.374.367-.749 1.101-.561.688.14 1.468.327 1.468.327s-.413-.936-.596-1.357c-.321-.75 0-1.124.32-1.217 0 0-.458-.328-.78-.562-.641-.468-.504-.936.139-1.217.871-.374 1.972-.89 1.972-.89-.367-.187-.734-.795-.275-1.45.458-.656 1.1-1.592 1.1-1.592h-1.972c-.734 0-.871-.608-.871-.983 0 0-1.147.843-2.018 1.404-.688.468-1.33 0-1.239-.795.184-1.311.321-2.715.321-2.715-.413.28-1.192.28-1.513-.422-.505-1.076-1.055-2.34-1.055-2.34s-.55 1.264-1.055 2.34c-.321.703-1.055.75-1.514.422 0 0 .138 1.45.321 2.715.092.842-.55 1.31-1.238.795-.826-.561-2.018-1.404-2.018-1.404 0 .421-.184.983-.872.983h-1.972s.688.936 1.101 1.592c.459.655.046 1.263-.275 1.45 0 0 1.1.516 1.972.89.642.28.78.749.138 1.217-.321.234-.78.562-.78.562.321.093.642.468.321 1.217l-.596 1.357s.78-.187 1.467-.327c.734-.188 1.055.187 1.101.561 0 0 1.284-.702 2.477-1.404.642-.375 1.009-.234 1.009.468v1.732c0 1.03-.183 2.106-.55 2.715-4.679-.515-8.577-4.353-8.577-9.409 0-5.195 4.265-9.408 9.494-9.408s9.494 4.213 9.494 9.408c0 4.868-3.715 8.847-8.44 9.362v1.264c5.596-.515 9.954-5.102 9.954-10.626C169.046 4.774 164.138 0 158.038 0c-6.055 0-11.008 4.774-11.008 10.672 0 5.196 3.807 9.502 8.852 10.485.872.188 1.422.281 1.835.843.55-1.03.688-3.136.688-4.353.046.047.046-1.451.046-2.013zM25.136 15.71V4.506h5.581c2.954 0 4.314 1.24 4.408 2.801.047.689-.14 1.423-.656 1.974-.516.551-.75.781-1.689 1.194l4.221 5.235H33.86l-3.705-4.638h-2.532v4.638h-2.486zm2.486-6.107h1.125c3.096 0 3.705-.505 3.705-1.974 0-1.424-1.36-1.653-3.376-1.653h-1.501v3.627h.047zM0 15.71L5.018 4.506h3.048L12.99 15.71H9.895l-1.313-2.985h-5.3l-1.36 2.985H0zm3.94-4.454h3.985l-1.97-4.454-2.016 4.454zm12.614 4.454V4.506h2.673V15.71h-2.673zm39.628-.368c-1.267.505-2.861.735-4.737.735-2.25 0-4.033-.551-5.3-1.561-1.265-1.056-1.875-2.526-1.875-4.362 0-1.929.657-3.352 1.923-4.408 1.266-1.01 3.095-1.515 5.487-1.515 1.5 0 3.001.138 4.502.459v1.837c-1.689-.506-3.283-.735-4.409-.735-1.453 0-2.579.367-3.376 1.102-.797.735-1.173 1.836-1.22 3.214 0 1.377.423 2.433 1.267 3.214.844.78 2.016 1.148 3.564 1.148 1.36 0 2.86-.276 4.22-.827l-.046 1.7zm3.282.368l5.018-11.204h3.049l4.924 11.204h-3.096l-1.313-2.985h-5.299l-1.36 2.985h-1.923zm3.94-4.454h3.986l-1.97-4.454-2.016 4.454zm29.122 4.454l5.018-11.158h3.048l4.924 11.158h-3.095l-1.313-2.985h-5.3l-1.36 2.985h-1.922zm3.94-4.454h3.986l-1.97-4.454-2.017 4.454zM123.9 15.71l5.018-11.204h3.048l4.924 11.204h-3.095l-1.313-2.985h-5.3l-1.36 2.985H123.9zm3.939-4.454h3.986l-1.97-4.454-2.016 4.454zM76.253 15.71V4.506h3.095l7.175 7.99v-7.99h2.158V15.71h-2.814L78.41 7.353v8.357h-2.157zm33.015 0V4.506h5.534c1.97 0 3.517.46 4.549 1.424 1.032.918 1.594 2.25 1.594 3.994 0 1.837-.562 3.26-1.688 4.316-1.125 1.01-2.72 1.516-4.69 1.516h-5.299v-.046zm2.673-1.607h1.97c1.407 0 2.438-.322 3.142-1.01.703-.69 1.032-1.7 1.032-3.077 0-1.056-.282-1.974-.845-2.663-.375-.505-.844-.826-1.36-1.01-.515-.184-1.313-.276-2.344-.276h-1.642v8.036h.047z" transform="translate(320.000000, 4375.000000) translate(0.000000, 213.000000)"/>
                </g>
            </g>
        </g>
    </g>
</svg>
