<svg xmlns="http://www.w3.org/2000/svg" width="115" height="15" viewBox="0 0 115 15">
    <defs>
        <filter id="z1465csd6a" color-interpolation-filters="auto">
            <feColorMatrix in="SourceGraphic" values="0 0 0 0 0.090196 0 0 0 0 0.070588 0 0 0 0 0.121569 0 0 0 1.000000 0"/>
        </filter>
    </defs>
    <g fill="none" fill-rule="evenodd">
        <g filter="url(#z1465csd6a)" transform="translate(-320.000000, -4738.000000)">
            <g>
                <g fill="#000" fill-rule="nonzero">
                    <path d="M5.748.178h4.979l2.663 3.338h5.85l1.99 2.676h-5.907l2.66 3.972s.847 1.428 1.943 1.428h4.79l2.48 3.338h-7.618s-2.929.321-5.321-3.017S5.748.178 5.748.178zM8.12 6.248h-.24c-1.642.087-2.925 1.306-2.925 2.78 0 1.475 1.283 2.694 2.926 2.78h4.244c.166.223.32.437.458.634.72 1.075 1.753 1.954 2.987 2.544H6.916c-2.312.144-4.533-.83-5.823-2.555-1.289-1.725-1.45-3.936-.42-5.796 1.03-1.86 3.09-3.084 5.404-3.21L8.12 6.249z" transform="translate(320.000000, 4375.000000) translate(0.000000, 363.000000)"/>
                    <path d="M8.23 11.496c-1.347-.105-2.372-1.125-2.348-2.335C5.905 7.95 6.97 6.963 8.319 6.9c.229-.002.457.025.678.08l.298.393H8.23c-1.125 0-2.037.817-2.037 1.825s.912 1.826 2.037 1.826h3.547l.349.481-3.896-.009zM23.902 10.97h-3.726c-.643-.02-1.237-.315-1.594-.795-.877-1.071-2.66-3.65-2.66-3.65h4.977l.349.472h-4.265l2.133 3.026c.314.312.766.485 1.235.473h3.189l.362.473zM18.003 2.383L18.361 2.856 13.383 2.856 10.919 0 11.807 0 13.748 2.383zM34.73 6.09c-.717-.021-1.393.297-1.782.838-.467.696-.69 1.501-.64 2.312 0 2.042.867 3.063 2.6 3.063.517 0 1.03-.065 1.524-.197.503-.134.998-.291 1.483-.472v2.422c-1.058.407-2.2.61-3.35.595-1.534.09-3.035-.42-4.117-1.398-1.03-1.131-1.541-2.571-1.43-4.028-.024-1.002.214-1.994.694-2.899.433-.805 1.127-1.474 1.99-1.92.936-.462 1.992-.693 3.06-.669 1.27-.002 2.526.254 3.67.748l-.98 2.257c-.426-.18-.863-.334-1.311-.464-.456-.128-.932-.192-1.41-.188zm12.762 8.412l-.58-1.989H43.06l-.6 1.989h-3.516L42.81 3.846h4.27l3.913 10.656h-3.5zm-1.245-4.34l-.51-1.743c-.119-.387-.263-.888-.433-1.502-.17-.615-.282-1.055-.336-1.32-.049.247-.145.653-.288 1.219-.143.565-.462 1.68-.956 3.345h2.523zm11.187 4.34l-2.422-7.643h-.074c.114 1.302.17 2.313.17 3.034v4.609h-2.835V3.89h4.262l2.47 7.534h.065l2.423-7.534h4.268v10.612h-2.939V9.849c0-.242.004-.51.013-.806.008-.295.044-1.018.11-2.17h-.074l-2.39 7.629h-3.047zm19.423 0h-3.2V6.235h-2.894V3.89h8.978v2.345h-2.884v8.267zm6.782-3.865v3.865h-3.2V3.89h3.881c3.22 0 4.83 1.046 4.83 3.136.007 1.22-.778 2.334-2.01 2.853l3.451 4.623h-3.63l-2.511-3.865h-.81zm0-2.155h.6c1.118 0 1.677-.443 1.677-1.329 0-.73-.548-1.096-1.645-1.096h-.632v2.425zm15.298 6.02l-.58-1.989h-3.852l-.6 1.989h-3.516l3.865-10.656h4.27l3.91 10.656h-3.497zm-1.244-4.34l-.51-1.743c-.12-.387-.264-.888-.434-1.502-.17-.615-.282-1.055-.336-1.32-.048.247-.144.653-.288 1.219-.143.565-.46 1.68-.951 3.345h2.519zm17.303 4.34h-4.198l-4.326-7.477h-.073c.103 1.176.155 2.074.155 2.693v4.784h-2.837V3.89h4.18l4.315 7.375h.05c-.077-1.07-.114-1.928-.114-2.577V3.89H115l-.004 10.612z" transform="translate(320.000000, 4375.000000) translate(0.000000, 363.000000)"/>
                </g>
            </g>
        </g>
    </g>
</svg>
