<svg xmlns="http://www.w3.org/2000/svg" width="102" height="35" viewBox="0 0 102 35"><defs><filter id="a" color-interpolation-filters="auto"><feColorMatrix in="SourceGraphic" values="0 0 0 0 0.090196 0 0 0 0 0.070588 0 0 0 0 0.121569 0 0 0 1.000000 0"/></filter></defs><g filter="url(#a)" transform="translate(-320 -5218)" fill="none" fill-rule="evenodd"><path d="M337.436 5218c9.63 0 17.436 7.835 17.436 17.5s-7.807 17.5-17.436 17.5c-9.63 0-17.436-7.835-17.436-17.5s7.806-17.5 17.436-17.5zm0 1.167c-8.988 0-16.274 7.312-16.274 16.333 0 9.02 7.286 16.333 16.274 16.333 8.988 0 16.273-7.312 16.273-16.333 0-9.02-7.285-16.333-16.273-16.333zm0 .33c8.806 0 15.944 7.165 15.944 16.003 0 8.838-7.138 16.003-15.944 16.003-8.806 0-15.946-7.165-15.946-16.003 0-8.838 7.139-16.003 15.945-16.003zm0 3.753c-6.74 0-12.205 5.485-12.205 12.25s5.464 12.25 12.205 12.25c6.74 0 12.205-5.485 12.205-12.25s-5.464-12.25-12.205-12.25zm0 .33c6.559 0 11.876 5.337 11.876 11.92s-5.317 11.92-11.876 11.92c-6.56 0-11.876-5.337-11.876-11.92s5.317-11.92 11.876-11.92zm0 3.753c-4.494 0-8.137 3.657-8.137 8.167s3.643 8.167 8.137 8.167c4.494 0 8.137-3.657 8.137-8.167s-3.643-8.167-8.137-8.167zm0 .33c4.312 0 7.808 3.509 7.808 7.837 0 4.328-3.496 7.836-7.808 7.836-4.312 0-7.808-3.508-7.808-7.836s3.496-7.836 7.808-7.836zm0 4.337c-1.926 0-3.487 1.567-3.487 3.5s1.561 3.5 3.487 3.5c1.926 0 3.487-1.567 3.487-3.5s-1.561-3.5-3.487-3.5zm0 .33c1.744 0 3.158 1.42 3.158 3.17s-1.414 3.17-3.158 3.17-3.158-1.42-3.158-3.17 1.414-3.17 3.158-3.17z" fill="#26BCFF"/><g fill-rule="nonzero"><path d="M374.38 5222.849l.338-.889h.31l.126 3.698h-.33a6.818 6.818 0 00-.815-2.3 1.737 1.737 0 00-1.452-.927 1.696 1.696 0 00-1.49 1.032 7.696 7.696 0 00-.573 3.492 6.165 6.165 0 00.657 3.162c.308.573.914.928 1.57.917a1.852 1.852 0 001.48-.71c.46-.637.73-1.387.78-2.167h.35a4.518 4.518 0 01-.888 2.523 2.317 2.317 0 01-1.854.882 2.689 2.689 0 01-1.666-.577 3.95 3.95 0 01-1.213-1.663 6.111 6.111 0 01-.454-2.377 7.066 7.066 0 01.47-2.579 4.314 4.314 0 011.197-1.81c.435-.384.994-.6 1.575-.606.316 0 .627.07.912.204.36.178.686.412.97.694zm4.46-.912h.33l2.602 8.409c.06.304.331.52.643.51h.225v.465h-2.894v-.466h.23c.22.018.442-.025.64-.124a.303.303 0 00.126-.267.775.775 0 00-.034-.224l-.6-1.951h-2.866l-.336 1.122c-.076.23-.12.468-.132.709a.706.706 0 00.22.522.894.894 0 00.65.22h.246v.465h-2.63v-.466a.926.926 0 00.667-.232c.218-.257.373-.56.452-.886l2.461-7.806zm-.144 1.77l-1.302 4.098h2.562l-1.26-4.098zm8.442-.877l.442-.801h.357l.03 3.35h-.324a5.03 5.03 0 00-.9-2.25 1.757 1.757 0 00-1.37-.71 1.32 1.32 0 00-1.06.493 1.806 1.806 0 00-.412 1.2c-.005.267.048.532.157.775.103.22.265.407.468.542a4.5 4.5 0 001.175.443 5.93 5.93 0 011.7.675c.316.218.568.515.73.86.167.384.25.798.24 1.216a3.174 3.174 0 01-.662 2.06 2.092 2.092 0 01-1.704.816 2.555 2.555 0 01-1.952-.918l-.554.858h-.354v-3.56h.354c.082.847.402 1.652.924 2.325.376.516.972.83 1.613.852.46.012.897-.19 1.185-.544.31-.37.472-.84.46-1.32a1.66 1.66 0 00-.173-.774 1.428 1.428 0 00-.544-.56 7.211 7.211 0 00-1.467-.547 3.933 3.933 0 01-1.638-.808 2.476 2.476 0 01-.616-1.796 3.107 3.107 0 01.61-1.985 1.905 1.905 0 011.563-.775c.301 0 .6.07.868.205.322.175.61.406.851.683l.003-.005zm7.405.019l.34-.888h.307l.127 3.697h-.33a6.837 6.837 0 00-.814-2.3 1.738 1.738 0 00-1.45-.926 1.696 1.696 0 00-1.49 1.03 7.682 7.682 0 00-.574 3.494 6.154 6.154 0 00.657 3.16c.308.575.914.93 1.57.919a1.852 1.852 0 001.48-.711 4.164 4.164 0 00.78-2.166h.348a4.514 4.514 0 01-.887 2.521 2.314 2.314 0 01-1.854.883 2.684 2.684 0 01-1.665-.578 3.944 3.944 0 01-1.213-1.662 6.098 6.098 0 01-.454-2.378 7.039 7.039 0 01.468-2.578 4.329 4.329 0 011.2-1.81 2.42 2.42 0 011.574-.608c.315 0 .627.07.912.205.356.18.68.414.962.696h.006zm4.26-.911h.33l2.602 8.408c.058.303.33.52.641.51h.227v.465h-2.894v-.466h.23a1.2 1.2 0 00.637-.124.303.303 0 00.127-.267.775.775 0 00-.034-.224l-.6-1.95h-2.868l-.337 1.12c-.076.23-.12.469-.132.71a.706.706 0 00.22.523.9.9 0 00.65.219h.246v.466h-2.63v-.466a.925.925 0 00.667-.233 2.15 2.15 0 00.452-.885l2.465-7.806zm-.144 1.77l-1.302 4.096h2.562l-1.26-4.095zm4.14-1.573h3.75a2.58 2.58 0 011.417.373c.55.399.978.943 1.232 1.57.356.823.53 1.71.507 2.606a7.59 7.59 0 01-.308 2.235 3.726 3.726 0 01-.708 1.337 2.994 2.994 0 01-1.165.857c-.44.158-.906.23-1.373.213h-3.355v-.466h.687a.489.489 0 00.36-.102.462.462 0 00.103-.33v-7.4a.434.434 0 00-.102-.306.39.39 0 00-.3-.115h-.74l-.006-.471zm2.63.466a.411.411 0 00-.327.118.516.516 0 00-.103.354v7.333a.44.44 0 00.122.338.6.6 0 00.417.115h.617a2.142 2.142 0 001.451-.54c.294-.277.507-.627.617-1.013a8.178 8.178 0 00.29-2.436 6.872 6.872 0 00-.633-3.365 1.775 1.775 0 00-1.628-.901l-.824-.003zm4.804-.466h5.752l.138 3.1h-.33a4.744 4.744 0 00-.618-2.05 1.304 1.304 0 00-1.102-.584h-1.42a.311.311 0 00-.26.118.602.602 0 00-.089.36v3.275h.617a.944.944 0 00.81-.453 2.63 2.63 0 00.334-1.393h.34v4.256h-.34a2.851 2.851 0 00-.34-1.513.991.991 0 00-.859-.456h-.567v3.657a.417.417 0 00.103.306.48.48 0 00.35.102h1.122c1.218 0 1.92-.985 2.105-2.956h.354l-.122 3.422h-5.98v-.465h.497a.535.535 0 00.41-.128.526.526 0 00.12-.37v-7.283a.54.54 0 00-.104-.36.41.41 0 00-.324-.118h-.594l-.003-.468zM367.288 5234.568l.412-.73h.33l.028 3.053h-.3a4.54 4.54 0 00-.833-2.05 1.639 1.639 0 00-1.27-.645 1.23 1.23 0 00-.982.447 1.636 1.636 0 00-.383 1.095c-.005.244.045.485.145.705.098.203.248.374.435.494.343.185.71.32 1.088.404.553.122 1.084.33 1.576.615.29.194.523.465.675.784.154.347.23.726.22 1.107a2.855 2.855 0 01-.61 1.875 1.95 1.95 0 01-1.58.74c-.692 0-1.35-.305-1.81-.839l-.513.782h-.326v-3.24h.327c.078.776.375 1.512.854 2.117.36.476.91.76 1.495.776a1.38 1.38 0 001.098-.495c.284-.332.436-.762.425-1.204a1.505 1.505 0 00-.16-.705 1.306 1.306 0 00-.503-.512 6.626 6.626 0 00-1.36-.5 3.67 3.67 0 01-1.518-.74 2.23 2.23 0 01-.567-1.636 2.797 2.797 0 01.566-1.81 1.777 1.777 0 011.448-.706c.278-.001.553.063.805.187.296.159.562.37.787.625v.005zm1.53-.63h5.46l.13 3.166h-.308c-.206-1.861-.747-2.792-1.622-2.792a.47.47 0 00-.363.114.574.574 0 00-.097.374v6.694a.408.408 0 00.095.3.43.43 0 00.31.096h.676v.424h-3.124v-.424h.774a.295.295 0 00.236-.096.381.381 0 00.08-.255v-6.789a.45.45 0 00-.102-.326.446.446 0 00-.336-.106 1.28 1.28 0 00-1.1.776 5.583 5.583 0 00-.523 2.012h-.331l.145-3.168zm5.972-.002h3.473a2.088 2.088 0 011.568.574c.378.4.58.943.556 1.501a2.16 2.16 0 01-.22.988 1.716 1.716 0 01-.638.689c-.408.21-.852.337-1.307.37.32.09.622.237.893.433.17.15.304.339.392.55.156.447.27.908.34 1.377.049.35.147.692.293 1.013.079.141.163.212.254.212.09 0 .178-.086.26-.258.103-.292.153-.6.149-.91h.31c-.058 1.284-.44 1.926-1.142 1.926a.85.85 0 01-.575-.212 1.275 1.275 0 01-.366-.617 11.083 11.083 0 01-.214-1.603 3.55 3.55 0 00-.216-1.07 1.173 1.173 0 00-.461-.512 1.407 1.407 0 00-.75-.192h-.553v3.29c-.01.106.02.212.086.294.096.08.218.117.34.106h.646v.423h-3.123v-.423h.659a.42.42 0 00.32-.106.407.407 0 00.104-.294v-6.7a.45.45 0 00-.103-.323.432.432 0 00-.318-.106h-.66l.003-.42zm2.05 3.852h.796c.447.027.89-.105 1.252-.375.34-.352.507-.844.453-1.338a2.626 2.626 0 00-.17-1.046 1.027 1.027 0 00-.448-.529 2.751 2.751 0 00-1.091-.14 1.38 1.38 0 00-.663.093.369.369 0 00-.128.317v3.018zm7.438-4.03h.308l2.41 7.663a.584.584 0 00.597.464h.206v.423h-2.682v-.423h.213a1.13 1.13 0 00.59-.114.27.27 0 00.119-.243.67.67 0 00-.032-.204l-.556-1.778h-2.658l-.31 1.02c-.07.208-.11.425-.122.646a.635.635 0 00.206.475.836.836 0 00.602.198h.228v.423h-2.436v-.423a.867.867 0 00.618-.212c.2-.23.343-.507.418-.806l2.28-7.109zm-.133 1.615l-1.206 3.73h2.375l-1.17-3.73zm3.387-1.435h5.454l.132 3.166h-.31c-.205-1.861-.745-2.792-1.621-2.792a.468.468 0 00-.362.114.57.57 0 00-.103.374v6.694a.413.413 0 00.096.3c.087.07.197.105.308.096h.678v.423h-3.124v-.423h.774a.294.294 0 00.236-.097.374.374 0 00.08-.254v-6.79a.454.454 0 00-.101-.326.447.447 0 00-.337-.106 1.28 1.28 0 00-1.1.776 5.582 5.582 0 00-.522 2.012h-.332l.153-3.167zm6.159 0h5.327l.128 2.826h-.31a4.285 4.285 0 00-.573-1.87 1.215 1.215 0 00-1.023-.53h-1.316a.286.286 0 00-.241.106.54.54 0 00-.081.328v2.985h.575a.878.878 0 00.75-.414c.22-.384.328-.825.309-1.27h.308v3.873h-.308a2.59 2.59 0 00-.315-1.376.918.918 0 00-.796-.416h-.526v3.33a.38.38 0 00.098.277c.093.073.21.107.326.096h1.039c1.128 0 1.78-.899 1.955-2.696h.327l-.11 3.12h-5.544v-.423h.46a.504.504 0 00.376-.113.468.468 0 00.11-.337v-6.64a.477.477 0 00-.095-.328.385.385 0 00-.3-.106h-.55v-.422zm11.279.658l.372-.837h.31l.168 3.341h-.296a6.138 6.138 0 00-.804-2.086 1.672 1.672 0 00-1.352-.82 1.537 1.537 0 00-1.05.413c-.345.337-.59.766-.71 1.24a8.457 8.457 0 00-.247 2.33 8.203 8.203 0 00.247 2.273c.114.46.35.879.683 1.208.282.256.646.394 1.022.388.47.026.927-.18 1.227-.555.302-.41.456-.917.435-1.432v-.789a.367.367 0 00-.117-.29.572.572 0 00-.38-.105h-.567v-.398h2.817v.398h-.382a.5.5 0 00-.364.106.437.437 0 00-.11.318v3.2h-.3a46.45 46.45 0 00-.34-1.432c-.185.41-.463.769-.812 1.045-.31.231-.683.353-1.066.348-.568 0-1.121-.19-1.575-.543a3.62 3.62 0 01-1.145-1.535 5.63 5.63 0 01-.421-2.233 5.651 5.651 0 01.423-2.242c.25-.618.648-1.16 1.157-1.575.416-.36.94-.566 1.483-.583.282 0 .56.06.816.18.326.172.623.396.878.666zm1.917-.658h3.1v.424h-.532a.629.629 0 00-.447.105.798.798 0 00-.093.467v6.343c-.02.164.01.329.08.476.108.1.252.147.396.13h.596v.423h-3.1v-.423h.587a.51.51 0 00.4-.114.87.87 0 00.09-.492v-6.343a.755.755 0 00-.08-.448.645.645 0 00-.47-.13h-.526l-.001-.418zm3.803 0h5.327l.128 2.826h-.31a4.285 4.285 0 00-.573-1.87 1.214 1.214 0 00-1.023-.529h-1.316a.283.283 0 00-.241.106.538.538 0 00-.081.328v2.984h.575a.878.878 0 00.75-.414c.22-.383.328-.825.309-1.27h.309v3.874h-.31a2.585 2.585 0 00-.314-1.377.92.92 0 00-.796-.416h-.526v3.33a.379.379 0 00.098.277.45.45 0 00.326.096h1.039c1.128 0 1.78-.898 1.955-2.695h.327l-.11 3.12h-5.543v-.423h.459a.504.504 0 00.378-.114.473.473 0 00.11-.336v-6.64a.484.484 0 00-.095-.329.384.384 0 00-.3-.106h-.552v-.422zm10.167.63l.412-.73h.33l.028 3.053h-.3a4.57 4.57 0 00-.834-2.05 1.644 1.644 0 00-1.271-.645 1.235 1.235 0 00-.982.448 1.629 1.629 0 00-.381 1.095c-.006.243.044.484.145.704.097.203.248.374.434.494.343.185.71.321 1.089.405.552.122 1.083.33 1.575.614.29.195.523.466.675.785.155.347.23.725.22 1.106a2.861 2.861 0 01-.61 1.876 1.95 1.95 0 01-1.58.739 2.382 2.382 0 01-1.81-.838l-.512.781h-.327v-3.24h.327c.078.777.376 1.513.855 2.118.36.476.909.76 1.495.776.42.013.823-.169 1.098-.496.284-.332.436-.762.425-1.203a1.492 1.492 0 00-.158-.705 1.309 1.309 0 00-.505-.512 6.69 6.69 0 00-1.358-.5 3.663 3.663 0 01-1.518-.74 2.236 2.236 0 01-.568-1.636 2.81 2.81 0 01.566-1.81 1.777 1.777 0 011.448-.705c.279 0 .554.064.805.188.296.159.562.37.786.625v.003z" fill="#323334"/><path d="M377.618 5249.008h-.477v-3.388h.477zm2.963 0h-.448l-.802-2.6.092 2.6h-.477v-3.39h.456l.824 2.598-.126-2.598h.477zm2.668-2.923a.784.784 0 00-.072-.033.68.68 0 00-.251-.064c-.258 0-.435.147-.531.445a2.97 2.97 0 00-.096.87c-.004.2.006.4.03.599.018.181.079.357.179.512a.535.535 0 00.456.22.713.713 0 00.189-.033.577.577 0 00.09-.031v.398a.836.836 0 01-.387.093.885.885 0 01-.857-.545 2.899 2.899 0 01-.206-1.207 3.69 3.69 0 01.076-.798c.044-.24.15-.468.31-.66a.858.858 0 01.663-.278.787.787 0 01.394.106l.013.405zm3.03 1.287c.005.255-.014.51-.054.76-.03.235-.12.457-.256.65a.71.71 0 01-.59.274.757.757 0 01-.617-.267 1.356 1.356 0 01-.26-.643 4.892 4.892 0 01-.05-.764 5.16 5.16 0 01.056-.824c.03-.248.12-.487.264-.695a.743.743 0 01.623-.3.7.7 0 01.602.3c.136.21.22.448.243.695.03.271.045.544.04.816v-.002zm-.497 0c0-.256-.005-.456-.016-.598a2.046 2.046 0 00-.103-.542c-.064-.16-.154-.24-.272-.24a.337.337 0 00-.31.232 1.45 1.45 0 00-.11.485 8.37 8.37 0 00-.025.665c-.008.273.008.546.046.817.059.292.18.438.364.438.223 0 .357-.21.4-.632.025-.208.035-.416.03-.625h-.003zm3.369 1.636h-.498l-.618-1.65v1.65h-.464v-3.39h.544a.927.927 0 01.707.22c.143.203.208.45.184.695a.887.887 0 01-.225.663c-.08.062-.168.116-.26.16l.63 1.652zm-.648-2.445a.8.8 0 00-.077-.4.344.344 0 00-.32-.153h-.073v1.11h.077c.107.004.21-.04.276-.123a.685.685 0 00.115-.436h.002zm3.315-.037a1.11 1.11 0 01-.197.706.83.83 0 01-.686.274h-.126v1.502h-.464v-3.39h.544a.995.995 0 01.718.211.973.973 0 01.21.698zm-.498.027a.759.759 0 00-.08-.4.397.397 0 00-.36-.149h-.07v1.106h.08a.396.396 0 00.319-.133.658.658 0 00.11-.426v.001zm3.453.82c.003.253-.016.508-.056.76-.03.232-.118.454-.255.647a.716.716 0 01-.59.277.763.763 0 01-.618-.269 1.35 1.35 0 01-.26-.641 4.792 4.792 0 01-.05-.767c-.003-.274.016-.55.056-.822.03-.25.12-.488.264-.696a.746.746 0 01.623-.3.7.7 0 01.603.3c.136.21.22.449.243.696.03.27.044.542.04.814zm-.498 0c0-.258-.006-.457-.017-.599a1.976 1.976 0 00-.103-.543c-.064-.16-.154-.238-.272-.238a.338.338 0 00-.31.23c-.064.156-.101.32-.11.487a7.896 7.896 0 00-.024.663c-.008.275.008.548.046.819.058.291.18.436.364.436.223 0 .357-.21.4-.631.026-.208.036-.417.032-.626h-.006zm3.368 1.635h-.497l-.618-1.65v1.65h-.465v-3.39h.545a.923.923 0 01.707.22c.143.203.208.45.184.695a.891.891 0 01-.225.664c-.08.062-.167.116-.26.16l.63 1.65zm-.646-2.445a.789.789 0 00-.077-.4.342.342 0 00-.32-.153h-.072v1.11h.076c.107.004.21-.04.277-.123a.67.67 0 00.11-.436h.006zm3.565 2.445h-.475l-.135-.655h-.691l-.128.656h-.462l.77-3.388h.38l.74 3.387zm-.687-1.007l-.251-1.702-.29 1.7h.54zm3.278-1.994h-.515v3.002h-.46v-3.002h-.503v-.392h1.473zm2.487 0h-.787v1.058h.699v.391h-.711v1.158h.786v.394h-1.251v-3.39h1.264zm2.838 1.333c.042.458-.053.92-.272 1.327a1.022 1.022 0 01-.874.34h-.54v-3.39h.678a.829.829 0 01.799.463c.163.4.234.83.209 1.26zm-.493.26v-.475a2.772 2.772 0 00-.04-.498 1.145 1.145 0 00-.141-.386.415.415 0 00-.172-.16.628.628 0 00-.301-.07h-.072v2.609h.15a.51.51 0 00.419-.246c.058-.107.098-.221.117-.34.026-.142.039-.285.038-.428l.002-.005z" fill="#61BFE7"/></g></g></svg>