<svg xmlns="http://www.w3.org/2000/svg" width="110" height="24" viewBox="0 0 110 24">
    <defs>
        <filter id="18scv6599a" color-interpolation-filters="auto">
            <feColorMatrix in="SourceGraphic" values="0 0 0 0 0.090196 0 0 0 0 0.070588 0 0 0 0 0.121569 0 0 0 1.000000 0"/>
        </filter>
    </defs>
    <g fill="none" fill-rule="evenodd">
        <g filter="url(#18scv6599a)" transform="translate(-320.000000, -4801.000000)">
            <g>
                <g fill="#0A0B09">
                    <path d="M14 20h4V6h-4v14zm2.027-20C14.886 0 14 .94 14 1.973 14 3.087 14.886 4 16.027 4 17.114 4 18 3.087 18 1.973 18 .94 17.114 0 16.027 0zm12.929 6c-1.77 0-3.288.785-4.11 2.032V6.308H21V20h3.846v-8.114c0-1.486 1.268-2.635 2.87-2.635 1.533 0 2.578 1.163 2.578 2.86V20H34v-8.717C34.014 8.186 31.91 6 28.956 6zm14.172 0C39.089 6 36 8.932 36 12.959 36 17.069 39.217 20 43.34 20c2.04 0 4.421-.822 5.654-2.068L46.5 15.466c-.751.698-2.083 1.192-3.188 1.192-1.63 0-2.834-.987-3.288-2.439H50C50 9.192 47.464 6 43.128 6zM40 11c.494-1.233 1.689-2 3.117-2 1.537 0 2.512.78 2.883 2h-6zm6-10h-3.641L41 4h3.641L46 1zm48.027-1C92.886 0 92 .94 92 1.973 92 3.087 92.886 4 94.027 4 95.114 4 96 3.087 96 1.973 96.013.94 95.127 0 94.027 0zM92 20h4V6h-4v14zm12.91-8.611c-1.892-.494-2.466-.7-2.466-1.426 0-.466.674-.81 1.65-.81 1.19 0 2.652.44 3.928 1.194l1.59-2.688C108.066 6.672 106.087 6 104.094 6c-3.297 0-5.49 1.81-5.477 4.347.03 2.646 2.251 3.4 5.119 4.072 1.433.357 2.466.617 2.466 1.454 0 .59-.76 1.014-1.821 1.014-1.864 0-3.44-.644-4.688-1.508L98 17.984c1.677 1.29 4.057 2.016 6.308 2.016 3.441 0 5.692-1.687 5.692-4.32 0-2.92-2.681-3.702-5.09-4.291zM86 20h4V2h-4v18zM76.528 6C72.433 6 69 9.178 69 12.986 69 16.795 72.433 20 76.528 20 80.595 20 84 16.795 84 12.986 84 9.178 80.595 6 76.528 6zm-.015 11C74.6 17 73 15.165 73 12.986 73 10.82 74.6 9 76.513 9 78.4 9 80 10.82 80 12.986 80.013 15.165 78.413 17 76.513 17zM60.59 6c-1.938 0-3.547.802-4.658 2.162V6.299H52V24h3.932v-6.295c1.096 1.387 2.72 2.19 4.658 2.19 3.718 0 6.41-2.883 6.41-6.961C67 8.869 64.308 6 60.59 6zm-1.186 11c-1.847 0-3.197-1.405-3.404-3.47v-1.09C56.207 10.406 57.557 9 59.404 9 61.512 9 63 10.649 63 12.986 62.986 15.35 61.512 17 59.404 17zM6.964 9.45c.763 0 1.47.245 2.04.644L12 7.944C10.71 6.747 8.934 6 6.964 6 3.51 6 .624 8.292 0 11.33l3.662.67c.292-1.455 1.651-2.55 3.302-2.55zm0 7.079c-1.637 0-2.996-1.084-3.302-2.529L0 14.658C.624 17.703 3.51 20 6.964 20c1.97 0 3.746-.748 5.036-1.948l-2.997-2.155c-.568.387-1.276.632-2.039.632z" transform="translate(320.000000, 4375.000000) translate(0.000000, 426.000000)"/>
                </g>
            </g>
        </g>
    </g>
</svg>
