<svg xmlns="http://www.w3.org/2000/svg" width="82" height="18" viewBox="0 0 82 18">
    <defs>
        <filter id="mejd2b2aca" color-interpolation-filters="auto">
            <feColorMatrix in="SourceGraphic" values="0 0 0 0 0.090196 0 0 0 0 0.070588 0 0 0 0 0.121569 0 0 0 1.000000 0"/>
        </filter>
    </defs>
    <g fill="none" fill-rule="evenodd">
        <g filter="url(#mejd2b2aca)" transform="translate(-320.000000, -4873.000000)">
            <g>
                <g fill="#E92D35">
                    <path d="M57.707.5h-2.93c-.161 0-.292.13-.292.289v6.374h-2.97V.789c0-.16-.131-.289-.293-.289h-2.93C48.132.5 48 .63 48 .789v16.423c0 .16.13.288.293.288h2.93c.16 0 .292-.129.292-.288v-6.6h2.97v6.6c0 .16.13.288.293.288h2.93c.161 0 .292-.129.292-.288V.79c0-.16-.13-.289-.293-.289M33.704 0h-3.02c-.164 0-.296.118-.296.264V12.48c0 .58-.134 1.041-.396 1.373-.244.307-.568.457-.992.457-.424 0-.748-.15-.992-.457-.263-.332-.395-.794-.395-1.374v-.019l-.007-4.247V.264c0-.146-.132-.264-.295-.264H24.296C24.132 0 24 .118 24 .264V12.512c0 1.614.384 3.044 1.288 4.013C26.205 17.507 27.503 18 29 18c1.497 0 2.795-.493 3.712-1.475.904-.969 1.288-2.4 1.288-4.013V.264C34 .118 33.868 0 33.704 0M5 0C3.503 0 2.205.485 1.288 1.452.384 2.406 0 3.813 0 5.402v7.196c0 1.588.384 2.996 1.288 3.95C2.205 17.515 3.503 18 5 18c1.497 0 2.795-.485 3.712-1.452.904-.954 1.288-2.362 1.288-3.95V8.64c0-.168-.136-.304-.303-.304H5.31c-.167 0-.315.136-.315.304v2.937c0 .168.148.304.315.304h1.145V12.547c0 .604-.139 1.084-.414 1.43-.257.32-.597.475-1.042.475-.445 0-.785-.156-1.042-.476-.274-.345-.426-.825-.426-1.429V5.436c0-.604.152-1.084.426-1.43.257-.32.597-.469 1.042-.469.445 0 .785.15 1.042.47.274.345.414.825.414 1.429v.667c0 .143.132.26.295.26h2.953c.164 0 .296-.117.296-.26v-.701c0-1.589-.384-2.996-1.288-3.95C7.795.485 6.497 0 5 0M42.158 13.601c-.24.297-.583.442-1.047.442h-1.664v-3.507h1.664c.438 0 .775.15 1.028.456.265.322.395.742.395 1.284 0 .57-.127 1.016-.376 1.325zM39.447 3.96h1.463c.429 0 .747.125.973.382.232.264.349.665.349 1.192 0 .547-.121.967-.361 1.248-.234.272-.548.405-.96.405h-1.464V3.96zm4.855 4.76c.54-.479 1.396-1.7 1.396-3.186 0-1.734-.657-2.845-1.21-3.474C43.601 1.055 42.331.502 40.91.502L38.215.5H36.29c-.16 0-.289.13-.289.289V17.21c0 .16.13.289.289.289H41.112c1.514 0 2.905-.614 3.807-1.731.521-.646 1.081-1.776 1.081-3.493 0-1.98-1.222-3.184-1.698-3.557zM18.058 7.155c-.285.321-.668.478-1.172.478H15.48V3.96h1.406c.503 0 .887.156 1.172.476.295.333.438.77.438 1.335 0 .591-.148 1.057-.438 1.384zm1.791 3.025l-.002-.002c.299-.211.575-.455.823-.734.597-.673 1.307-1.856 1.307-3.673 0-1.774-.71-2.948-1.309-3.624-.88-.99-2.109-1.56-3.483-1.633V.502h-.261L16.886.5v.002H12.29c-.16 0-.29.128-.29.288v16.422c0 .16.13.288.29.288h2.9c.16 0 .29-.129.29-.288v-6.12h1.036l1.835 6.201c.037.123.15.207.279.207h3.08c.092 0 .179-.043.233-.117.055-.073.071-.168.044-.256L19.85 10.18zM78.158 13.601c-.24.297-.583.442-1.047.442h-1.664v-3.507h1.664c.438 0 .775.15 1.028.456.265.322.395.742.395 1.284 0 .57-.127 1.016-.376 1.325zM75.447 3.96h1.463c.429 0 .747.125.973.382.232.264.35.665.35 1.192 0 .547-.122.967-.362 1.248-.234.272-.548.405-.96.405h-1.464V3.96zm4.855 4.76c.54-.479 1.396-1.7 1.396-3.186 0-1.734-.657-2.845-1.21-3.474C79.601 1.055 78.331.502 76.91.502L74.215.5H72.29c-.16 0-.289.13-.289.289V17.21c0 .16.13.289.289.289H77.112c1.514 0 2.905-.614 3.807-1.731.521-.646 1.081-1.776 1.081-3.493 0-1.98-1.222-3.184-1.698-3.557zM69.704 0h-3.02c-.164 0-.296.118-.296.264V12.48c0 .58-.134 1.041-.396 1.373-.244.307-.568.457-.992.457-.424 0-.748-.15-.992-.457-.263-.332-.395-.794-.395-1.374v-.019l-.007-4.247V.264c0-.146-.132-.264-.295-.264H60.296C60.132 0 60 .118 60 .264V12.512c0 1.614.384 3.044 1.288 4.013C62.205 17.507 63.503 18 65 18c1.497 0 2.795-.493 3.712-1.475.904-.969 1.288-2.4 1.288-4.013V.264C70 .118 69.868 0 69.704 0" transform="translate(320.000000, 4375.000000) translate(0.000000, 498.000000)"/>
                </g>
            </g>
        </g>
    </g>
</svg>
