<svg xmlns="http://www.w3.org/2000/svg" width="83" height="26" viewBox="0 0 83 26">
    <defs>
        <filter id="3koth1gpma" color-interpolation-filters="auto">
            <feColorMatrix in="SourceGraphic" values="0 0 0 0 0.090196 0 0 0 0 0.070588 0 0 0 0 0.121569 0 0 0 1.000000 0"/>
        </filter>
    </defs>
    <g fill="none" fill-rule="evenodd">
        <g filter="url(#3koth1gpma)" transform="translate(-321.000000, -4514.000000)">
            <g>
                <g>
                    <path fill="#000" fill-rule="nonzero" d="M11.95.425h10.907v.14c-.46 2.19-.91 4.325-1.34 6.493 0 .054-.078.124 0 .186 0-.054.083-.07.132-.1.544-.29 1.153-.434 1.769-.42h9.788c.2-.002.398.018.592.062.48.102.89.409 1.122.84.062-.28.125-.521.171-.777 0-.11.063-.148.18-.148h12.666c.3.007.593.092.85.248.363.22.676.513.919.862 0 .039 0 .093.1.093.063-.33.14-.668.187-1.01 0-.148.078-.179.219-.179h12.345c.983-.012 1.918.422 2.54 1.18.219.275.395.581.522.908l.078-.109c.424-.45.9-.848 1.417-1.188.709-.488 1.546-.758 2.408-.776h11.202c.125 0 .149 0 .125.155-.109.505-.21 1.017-.319 1.554-.397 1.918-.779 3.883-1.2 5.763 0 .116-.062.155-.194.155h-.975l.07.054c.553.398.99.934 1.27 1.554.224.492.369 1.016.429 1.553.166 1.194.035 2.41-.381 3.542-1.145 2.842-3.894 4.715-6.965 4.746H53.512c-1.09-.007-2.162-.288-3.115-.815-.396-.204-.758-.466-1.076-.776-.11.495-.226.962-.331 1.437 0 .116-.062.165-.195.165H31.613c-.14 0-.171-.039-.14-.17.032-.133.094-.459.133-.684-.055 0-.07 0-.094.039-.604.546-1.389.85-2.204.854h-8.773c-.39.006-.781-.044-1.158-.147-.878-.173-1.638-.714-2.088-1.485-.047-.094-.07-.04-.11 0-.187.17-.365.35-.552.512-.825.74-1.9 1.143-3.01 1.125H4.515c-.312.002-.622-.059-.91-.179-.938-.39-1.679-1.14-2.054-2.081-.123-.31-.22-.63-.288-.956v-.838c.08-.235.137-.476.171-.722.592-2.812 1.182-5.621 1.769-8.428 0-.155.093-.186.242-.186h7.658c.14 0 .18-.046.203-.171.264-1.196.53-2.393.778-3.588 0-.125 0-.171-.132-.171h-1.558c-.166 0-.172-.054-.14-.18.031-.124.077-.346.112-.519.452-2.128.904-4.248 1.348-6.377.098-.342.177-.69.237-1.04zm51.558 19.704H62.3c-.109 0-.125 0-.1-.14.378-1.832.763-3.67 1.152-5.514 0-.187 0-.187-.155-.187h-7.862c-.422-.007-.844.016-1.262.07-1.306.152-2.523.732-3.46 1.65-1.541 1.557-1.86 3.945-.778 5.849.61 1.211 1.85 1.98 3.209 1.988h9.606c.101 0 .14 0 .156-.132.11-.59.233-1.172.35-1.763.118-.59.227-1.2.352-1.821zm-54.12 3.736h4.432c1.159-.22 2.077-1.105 2.338-2.253.52-2.387 1.02-4.771 1.504-7.153 0-.116 0-.148-.117-.148H12.87c-.094 0-.14 0-.156.125-.187.878-.39 1.747-.58 2.625-.124.606-.287 1.204-.373 1.815-.025.335-.113.661-.258.963-.092.214-.304.352-.538.35H9.29c-.287.018-.536-.196-.56-.482-.04-.258-.026-.522.038-.776.331-1.485.608-2.983.927-4.466 0-.109 0-.148-.117-.148H5.041c-.101 0-.148 0-.172.132-.303 1.476-.615 2.944-.919 4.42-.205.962-.42 1.926-.6 2.896-.064.523.095 1.048.439 1.448.344.4.84.636 1.368.652h4.23zm15.666 0h4.028c.24-.003.48-.029.716-.078 1.119-.257 1.975-1.156 2.174-2.284.218-.83.358-1.677.53-2.516l.957-4.544c0-.077.047-.147-.093-.147h-4.332c-.082 0-.116 0-.132.116-.11.528-.233 1.064-.35 1.6-.211.978-.421 1.965-.64 2.951-.115.717-.764 1.225-1.49 1.166h-1.89c-.2.004-.397-.027-.585-.093-.261-.091-.443-.33-.459-.606-.02-.129-.02-.26 0-.389.304-1.553.6-3.044.904-4.566 0-.117 0-.148-.117-.148h-4.31c-.11 0-.148 0-.171.132-.094.52-.195 1.033-.296 1.554-.312 1.553-.621 3.124-.927 4.714-.087.344-.144.695-.172 1.049-.02.667.339 1.289.927 1.608.519.32 1.12.485 1.73.473l3.998.008zm39.103 0h8.07c1.815.046 3.535-.799 4.605-2.26.619-.757.984-1.689 1.043-2.664.022-1.139-.346-2.251-1.043-3.154-.651-.98-1.769-1.55-2.947-1.501h-8.212c-.14 0-.17.039-.165.17.004.274.028.546.07.816.093.7.385 1.358.842 1.897.588.67 1.445 1.043 2.337 1.018h3.732c.259.012.502.127.675.32.173.193.261.447.244.705-.095.526-.555.909-1.09.908h-7.229c-.125 0-.18 0-.203.155-.14.707-.288 1.413-.436 2.12-.086.491-.195.973-.293 1.47zM16.897 2.382h-3.17c-.101 0-.133.039-.148.125-.322 1.356-.636 2.718-.943 4.084 0 .117 0 .14.125.14h1.402c.101 0 .156 0 .125.132-.083.35-.148.699-.218 1.056-.304 1.476-.608 2.96-.92 4.435 0 .093 0 .132.11.132h4.76c.093 0 .124 0 .148-.125.264-1.313.538-2.633.778-3.945l1.215-5.87c0-.133 0-.166-.14-.166l-3.124.002zm10.128 10.097h6.653c.117 0 .165 0 .187-.148.07-.412.14-.815.248-1.212.152-.528.064-1.096-.241-1.553-.347-.602-.995-.969-1.691-.956h-8.568c-.216.002-.432.015-.646.04-1.133.137-2.063.957-2.337 2.062-.125.536-.226 1.072-.351 1.615 0 .14 0 .171.148.171l6.598-.019zm17.396 11.386h2.804c.094 0 .148 0 .172-.125.226-1.155.459-2.33.685-3.48 0-.115 0-.131-.117-.131h-1.021c-.101 0-.117 0-.094-.125.382-1.848.78-3.697 1.146-5.553 0-.132 0-.165-.14-.165H43.58c-.094 0-.133 0-.148.116-.016.117-.078.413-.125.621-.592 2.897-1.19 5.798-1.792 8.702 0 .125 0 .155.132.155l2.774-.015zM42.24 12.486h6.069c.125 0 .17 0 .194-.155.14-.776.28-1.485.436-2.22.091-.377-.046-.771-.35-1.01-.403-.338-.917-.514-1.442-.496h-10.19c-.109 0-.148 0-.17.14-.245 1.19-.504 2.379-.78 3.565 0 .148 0 .186.14.186l6.093-.01zm15.16 0h6.124c.094 0 .166 0 .18-.132.1-.566.21-1.133.32-1.7.063-.315-.002-.642-.18-.908-.429-.677-1.17-1.095-1.972-1.112h-9.766c-.082 0-.165 0-.194.125-.258 1.196-.514 2.392-.779 3.588 0 .148 0 .179.14.179l6.127-.04zM33.694 23.865h4.518c.172 0 .234-.046.265-.21.366-1.77.779-3.534 1.114-5.297.272-1.297.538-2.594.779-3.883 0-.148 0-.18-.148-.18h-4.456c-.132 0-.171.04-.195.156-.17.862-.35 1.724-.522 2.586l-1.005 4.971c-.062.61-.226 1.228-.35 1.857zm44.6-15.272h-7.79c-.33 0-.657.024-.982.07-1.951.29-3.51 1.769-3.896 3.697 0 .11 0 .125.101.125h11.609c.1 0 .14 0 .165-.125.133-.637.272-1.265.414-1.902.141-.637.238-1.226.379-1.865z" transform="translate(320.000000, 4375.000000) translate(0.000000, 139.000000)"/>
                    <path fill="#000" fill-rule="nonzero" d="M83.738 24.347c-.132.404-.264.776-.397 1.18-.022.114-.059.225-.109.33-.004.041-.024.08-.056.106-.033.026-.074.038-.115.034-.117 0-.133-.062-.156-.14l-.467-1.402c.009-.047-.018-.093-.063-.11v1.516c0 .093 0 .139-.124.139-.125 0-.14 0-.14-.14v-1.732c0-.109 0-.14.14-.132.28 0 .28 0 .365.264l.42 1.281c0 .043.025.082.063.1l.496-1.514c.094-.125.257-.175.405-.124V25.9c0 .11-.062.093-.132.093s-.125 0-.125-.109v-1.367c.015-.056.012-.116-.008-.17h.003zM80.919 25.092v-.776c0-.082 0-.125-.11-.116-.109.008-.303 0-.451 0-.148 0-.083-.062-.094-.125-.01-.063 0-.1.094-.1h1.389c.1 0 .1.046.1.116s0 .116-.109.109c-.109-.008-.265 0-.397 0s-.156.039-.156.155v1.467c0 .1 0 .155-.132.155s-.148 0-.14-.148c.014-.232.006-.48.006-.737zM55.974 20.137h-1.352c-.29.004-.577-.061-.837-.19-.304-.128-.472-.456-.397-.777.023-.176.075-.347.156-.505.15-.331.493-.533.856-.505h3.491c.094 0 .117 0 .094.125-.125.577-.242 1.155-.359 1.74 0 .109-.078.093-.148.093l-1.504.02z" transform="translate(320.000000, 4375.000000) translate(0.000000, 139.000000)"/>
                </g>
            </g>
        </g>
    </g>
</svg>
