<svg xmlns="http://www.w3.org/2000/svg" width="13" height="13" viewBox="0 0 13 13">
    <g fill="none" fill-rule="evenodd">
        <g>
            <g>
                <path d="M0 0H24V24H0z" transform="translate(-518.000000, -4069.000000) translate(512.000000, 4064.000000)"/>
                <path fill="#000" fill-rule="nonzero" d="M7.5 8.596c.464 0 .834-.134 1.11-.402.276-.268.412-.602.408-1.002-.004-.4-.14-.732-.408-.996-.268-.264-.63-.396-1.086-.396-.456 0-.824.132-1.104.396-.28.264-.42.6-.42 1.008 0 .256.062.49.186.702.124.212.298.38.522.504.224.124.484.186.78.186H7.5zm5.532 9.204v-4.524c0-.304.028-.524.084-.66.12-.28.284-.504.492-.672.248-.208.544-.312.888-.312.472 0 .824.168 1.056.504.208.312.312.756.312 1.332V17.8h2.688v-4.644c0-.808-.136-1.492-.408-2.052-.256-.528-.62-.928-1.092-1.2-.456-.264-.988-.396-1.596-.396-.64 0-1.184.16-1.632.48-.24.167-.469.4-.687.7l-.105.153V9.7h-2.688c.008.16.013.601.015 1.323v1.819l-.003 1.19-.012 3.768h2.688zm-4.176 0V9.7h-2.7v8.1h2.7z" transform="translate(-518.000000, -4069.000000) translate(512.000000, 4064.000000)"/>
            </g>
        </g>
    </g>
</svg>
