<svg xmlns="http://www.w3.org/2000/svg" width="227" height="62.574" viewBox="0 0 227 62.574"><defs><style>.a{fill:#fff;}.b{fill:#f24c27;}.c{fill:#1d1d1b;}</style></defs><g transform="translate(0 0)"><g transform="translate(0)"><ellipse class="a" cx="40.507" cy="18.551" rx="40.507" ry="18.551" transform="matrix(0.94, -0.342, 0.342, 0.94, 0, 27.709)"/><path class="b" d="M2.134,28.364a1.473,1.473,0,0,0-1.378.975,10.522,10.522,0,0,0-.207,7.223c3.566,9.81,23.639,11.513,44.816,3.8,13.181-4.79,23.658-12.089,28.866-19.282a1.469,1.469,0,0,0-1.167-2.331H26.783v1.213H57.769a1.469,1.469,0,0,1,1.469,1.469V26.9a1.469,1.469,0,0,1-1.469,1.469H24.647A1.473,1.473,0,0,1,23.175,26.9V24.76H55.634V23.555H24.647a1.473,1.473,0,0,1-1.473-1.469V16.614a1.473,1.473,0,0,1,1.473-1.473h51.5a1.506,1.506,0,0,0,1.45-1.205,9.792,9.792,0,0,0-.324-5.306c-3.57-9.792-23.643-11.513-44.816-3.8-12.093,4.4-21.914,10.9-27.477,17.5a1.473,1.473,0,0,0,1.13,2.429H18.366v-4.8H20.5a1.473,1.473,0,0,1,1.473,1.469V26.9A1.473,1.473,0,0,1,20.5,28.364Zm18.035-9.615h0a1.808,1.808,0,0,1-1.8-1.8h0a1.8,1.8,0,0,1,1.8-1.8h0a1.8,1.8,0,0,1,1.8,1.8h0a1.808,1.808,0,0,1-1.8,1.8Z" transform="translate(5.5 8.69)"/><g transform="translate(92.821 14.1)"><path class="c" d="M242.458,15.3l-4.451,26.682H231.86L236.319,15.3Z" transform="translate(-231.86 -14.946)"/><path class="c" d="M270.308,32.73l-.633,3.766q2.165-4.143,5.95-4.143a5.077,5.077,0,0,1,3.811,1.506,5.272,5.272,0,0,1,1.5,3.871,29.053,29.053,0,0,1-.448,3.691L278.6,52.611h-5.732l1.936-11.618A18.586,18.586,0,0,0,275.1,38.8a1.834,1.834,0,0,0-2.056-2.094,3.092,3.092,0,0,0-1.973.716,4.033,4.033,0,0,0-1.311,1.838,20.957,20.957,0,0,0-.8,3.5L267.311,52.6H261.56l3.325-19.881Z" transform="translate(-250.375 -25.575)"/><path class="c" d="M331.826,28.611H327.1l-1.341,7.965a11.3,11.3,0,0,0-.234,1.714q0,1.6,2.587,1.6a10.4,10.4,0,0,0,2.079-.177l-.753,4.38a24.731,24.731,0,0,1-3.954.335q-5.932,0-5.931-4.809a26.505,26.505,0,0,1,.625-4.478l1.329-6.53H318.43l.753-4.564H322.5l1.352-5.487,5.062-.139-.964,5.626h4.632Z" transform="translate(-285.828 -16.891)"/><path class="c" d="M375.339,43.55H362.516a14.365,14.365,0,0,0-.117,1.473,3.956,3.956,0,0,0,.975,2.915,3.239,3.239,0,0,0,2.376.975q2.783,0,3.954-3.182l4.9.821a9.66,9.66,0,0,1-3.389,4.662,9.415,9.415,0,0,1-5.8,1.789,8.436,8.436,0,0,1-6.368-2.542,9.159,9.159,0,0,1-2.444-6.624,12.514,12.514,0,0,1,2.881-8.1,9.36,9.36,0,0,1,7.634-3.559,7.768,7.768,0,0,1,6.206,2.568,9.423,9.423,0,0,1,2.218,6.4A19.979,19.979,0,0,1,375.339,43.55Zm-12.409-3.3h7.155a8.366,8.366,0,0,0,.1-1.186,3.129,3.129,0,0,0-.889-2.391,2.986,2.986,0,0,0-2.132-.836c-2.188,0-3.6,1.473-4.233,4.414Z" transform="translate(-309.622 -25.469)"/><path class="c" d="M427.814,25.007a8.473,8.473,0,0,0-1.3-.147q-2.26,0-2.535,1.7a5.083,5.083,0,0,1,2.8,4.591,5.566,5.566,0,0,1-2.4,4.734,10.13,10.13,0,0,1-6.157,1.759,22.766,22.766,0,0,1-3.389-.354c-1.077.429-1.612,1.017-1.612,1.755a1.13,1.13,0,0,0,.618,1.047,5.24,5.24,0,0,0,2.293.377,28.637,28.637,0,0,1,6.685.576,5.122,5.122,0,0,1,2.681,1.819,4.87,4.87,0,0,1,.964,2.994,6.015,6.015,0,0,1-2.346,4.685q-2.346,2.007-8.88,2.007-5.378,0-7.472-1.13a3.5,3.5,0,0,1-2.094-3.19q0-2.636,3.725-4.03a3.905,3.905,0,0,1-1.717-3.239,4.368,4.368,0,0,1,.716-2.433,9.145,9.145,0,0,1,3.536-2.493,4.6,4.6,0,0,1-2.26-4.165,5.649,5.649,0,0,1,2.467-4.843,10.089,10.089,0,0,1,6.056-1.774,12.427,12.427,0,0,1,3.48.414Q422.395,21,426.462,21c.377,0,.9.026,1.589.079Zm-11.8,24.238q5.084,0,5.084-2.09a1.231,1.231,0,0,0-.588-1.009,5.692,5.692,0,0,0-2.757-.467q-2.892-.034-4.455-.154c-.339-.026-.565-.038-.682-.038a2.143,2.143,0,0,0-1.348.561,1.585,1.585,0,0,0-.685,1.22q0,1.028,1.6,1.506A13.6,13.6,0,0,0,416.019,49.245Zm2.58-20.762a3.285,3.285,0,0,0-2.636,1.006,3.22,3.22,0,0,0-.87,2.135q0,2.926,2.87,2.926a3.244,3.244,0,0,0,2.614-1.024,3.657,3.657,0,0,0,.881-2.467Q421.453,28.483,418.6,28.483Z" transform="translate(-340.213 -18.499)"/><path class="c" d="M481.871,38.318a6.282,6.282,0,0,0-2.636.482,4.866,4.866,0,0,0-1.906,1.744,8.8,8.8,0,0,0-1.269,2.836q-.377,1.57-.949,5.069l-.723,4.3H468.4l3.322-19.881h5.589l-.753,4.549a13.266,13.266,0,0,1,1.744-3.1,4.406,4.406,0,0,1,1.793-1.408,6.978,6.978,0,0,1,2.373-.339Z" transform="translate(-379.319 -25.713)"/><path class="c" d="M517.226,21.515,513.9,41.4H507.92l3.322-19.881Zm1.2-7.155-.945,5.649H511.49l.945-5.649Z" transform="translate(-403.955 -14.36)"/><path class="c" d="M548.176,31.994a8.179,8.179,0,0,1,6.27,2.576,9.462,9.462,0,0,1,2.4,6.734,11.983,11.983,0,0,1-2.907,8.12,9.227,9.227,0,0,1-7.291,3.363,8.323,8.323,0,0,1-6.24-2.542,8.809,8.809,0,0,1-2.467-6.4,12.686,12.686,0,0,1,2.836-8.47A9.215,9.215,0,0,1,548.176,31.994Zm-.026,3.86q-2.463,0-3.389,3.043a21.06,21.06,0,0,0-.96,6.278q0,3.766,2.99,3.766,2.44,0,3.344-3.31a22.826,22.826,0,0,0,.908-6q0-3.766-2.892-3.766Z" transform="translate(-422.67 -25.35)"/></g><g transform="translate(93.653 51.59)"><path class="c" d="M234.07,118.838l.881-.079a1.981,1.981,0,0,0,.29.874,1.612,1.612,0,0,0,.712.55,2.909,2.909,0,0,0,2.034.053,1.359,1.359,0,0,0,.61-.437,1.036,1.036,0,0,0,.2-.606.919.919,0,0,0-.192-.58,1.4,1.4,0,0,0-.636-.414,11.674,11.674,0,0,0-1.262-.346,6.172,6.172,0,0,1-1.363-.444,1.917,1.917,0,0,1-.753-.659,1.627,1.627,0,0,1-.249-.885,1.842,1.842,0,0,1,.305-1.006,1.883,1.883,0,0,1,.889-.708,3.367,3.367,0,0,1,1.3-.241,3.548,3.548,0,0,1,1.39.252,2.015,2.015,0,0,1,.926.753,2.211,2.211,0,0,1,.346,1.13l-.9.068a1.431,1.431,0,0,0-.49-1.006,1.924,1.924,0,0,0-1.235-.339,1.977,1.977,0,0,0-1.235.313.93.93,0,0,0-.377.753.8.8,0,0,0,.275.625,3.8,3.8,0,0,0,1.412.5,9.145,9.145,0,0,1,1.563.448,2.139,2.139,0,0,1,.915.723,1.755,1.755,0,0,1,.294,1.006,1.925,1.925,0,0,1-.32,1.062,2.158,2.158,0,0,1-.93.776,3.186,3.186,0,0,1-1.363.279,4.037,4.037,0,0,1-1.608-.279,2.29,2.29,0,0,1-1.021-.84A2.38,2.38,0,0,1,234.07,118.838Z" transform="translate(-234.07 -113.908)"/><path class="c" d="M290.73,121.3v-3.013L288,114.23h1.13l1.393,2.139c.26.4.5.795.723,1.194.215-.377.474-.787.78-1.25l1.367-2.083h1.092l-2.828,4.082v3.013Z" transform="translate(-267.69 -114.109)"/><path class="c" d="M344.16,118.839l.881-.079a1.933,1.933,0,0,0,.294.874,1.571,1.571,0,0,0,.712.55,2.9,2.9,0,0,0,2.03.053,1.341,1.341,0,0,0,.61-.437,1.036,1.036,0,0,0,.2-.606.919.919,0,0,0-.192-.58,1.4,1.4,0,0,0-.637-.414,11.672,11.672,0,0,0-1.262-.346,6.226,6.226,0,0,1-1.367-.444,1.9,1.9,0,0,1-.753-.659,1.657,1.657,0,0,1-.249-.885,1.812,1.812,0,0,1,.305-1.006,1.913,1.913,0,0,1,.889-.708,3.355,3.355,0,0,1,1.3-.241,3.559,3.559,0,0,1,1.39.252,1.988,1.988,0,0,1,.923.753,2.176,2.176,0,0,1,.35,1.13l-.9.068a1.431,1.431,0,0,0-.49-1.006,1.921,1.921,0,0,0-1.232-.339,1.981,1.981,0,0,0-1.239.313.93.93,0,0,0-.377.753.8.8,0,0,0,.275.625,3.8,3.8,0,0,0,1.412.5,9.328,9.328,0,0,1,1.567.448,2.147,2.147,0,0,1,.911.723,1.755,1.755,0,0,1,.294,1.006,1.924,1.924,0,0,1-.32,1.062,2.158,2.158,0,0,1-.93.776,3.186,3.186,0,0,1-1.363.279,4.022,4.022,0,0,1-1.608-.279,2.29,2.29,0,0,1-1.021-.84A2.448,2.448,0,0,1,344.16,118.839Z" transform="translate(-302.7 -113.908)"/><path class="c" d="M400.955,121.3V115.07H398.62v-.84h5.6v.84h-2.335V121.3Z" transform="translate(-336.65 -114.109)"/><path class="c" d="M453.66,121.28V114.2h5.126v.84h-4.192v2.154h3.924v.84h-3.924v2.41h4.354v.836Z" transform="translate(-370.962 -114.09)"/><path class="c" d="M508.59,121.28V114.2h1.4l1.683,5.013q.234.7.339,1.051c.079-.256.207-.636.377-1.13l1.7-4.93h1.262v7.076h-.9v-5.913l-2.064,5.913h-.844l-2.045-6.026v6.026Z" transform="translate(-405.205 -114.09)"/><path class="c" d="M566.71,118.839l.881-.079a1.932,1.932,0,0,0,.294.874,1.571,1.571,0,0,0,.712.55,2.9,2.9,0,0,0,2.03.053,1.36,1.36,0,0,0,.61-.437,1.036,1.036,0,0,0,.2-.606.9.9,0,0,0-.2-.58,1.371,1.371,0,0,0-.633-.414,11.961,11.961,0,0,0-1.262-.346,6.225,6.225,0,0,1-1.367-.444,1.9,1.9,0,0,1-.753-.659,1.626,1.626,0,0,1-.249-.885,1.811,1.811,0,0,1,.305-1.006,1.883,1.883,0,0,1,.889-.708,3.34,3.34,0,0,1,1.3-.241,3.559,3.559,0,0,1,1.39.252,2.007,2.007,0,0,1,.923.753,2.177,2.177,0,0,1,.35,1.13l-.9.068a1.431,1.431,0,0,0-.49-1.006,1.925,1.925,0,0,0-1.235-.339,1.977,1.977,0,0,0-1.235.313.934.934,0,0,0-.377.753.813.813,0,0,0,.275.625,3.855,3.855,0,0,0,1.412.5,9.415,9.415,0,0,1,1.57.448,2.147,2.147,0,0,1,.911.723,1.756,1.756,0,0,1,.294,1.006,1.925,1.925,0,0,1-.32,1.062,2.158,2.158,0,0,1-.93.776,3.186,3.186,0,0,1-1.363.279,4.022,4.022,0,0,1-1.608-.279,2.26,2.26,0,0,1-1.017-.84A2.384,2.384,0,0,1,566.71,118.839Z" transform="translate(-441.437 -113.908)"/></g></g></g></svg>