<svg xmlns="http://www.w3.org/2000/svg" width="93" height="38" viewBox="0 0 93 38"><g fill-rule="nonzero" fill="none"><path fill="#141414" d="M0 6.929L16.959 0 34 6.929 16.947 15z"/><path fill="#141414" d="M0 7l17 7.941V38L0 28.613zm35 0l-17 7.941V38l17-9.388z"/><path fill="#FFF" d="M18.005 27.981a2.302 2.302 0 01.623-1.608c.102-.11.221-.205.354-.278.349-.189.673-.092.858.254.126.234.18.498.154.76-.038.506-.22.99-.523 1.402a1.291 1.291 0 01-.497.408.609.609 0 01-.51.045.587.587 0 01-.359-.356 1.309 1.309 0 01-.1-.627z"/><path fill="#FFF" d="M20.999 15.968a2.39 2.39 0 01-.641 1.692c-.105.108-.23.197-.368.262-.35.169-.657.059-.844-.28a1.344 1.344 0 01-.144-.682c.001-.498.158-.984.45-1.395.134-.206.322-.374.544-.488a.624.624 0 01.5-.044.6.6 0 01.365.334c.099.185.146.393.138.601z" opacity=".25"/><path fill="#FFF" d="M18.01 19.952a1.96 1.96 0 01.415-1.41c.125-.18.292-.33.488-.438.42-.224.825-.077.984.36.115.322.134.667.054.998-.078.417-.27.807-.558 1.131a1.727 1.727 0 01-.352.29c-.461.279-.968.038-1.028-.486a3.478 3.478 0 01-.003-.445z" opacity=".25"/><path fill="#FFF" d="M18.002 36.083c-.018-.607.192-1.2.59-1.669.146-.185.347-.32.577-.39a.542.542 0 01.606.206c.155.196.235.437.224.683a2.407 2.407 0 01-.71 1.781c-.124.114-.27.204-.431.264a.544.544 0 01-.674-.217 1.05 1.05 0 01-.182-.658z"/><path fill="#FFF" d="M21 23.052a2.573 2.573 0 01-.533 1.469 1.275 1.275 0 01-.528.418.565.565 0 01-.728-.193 1.138 1.138 0 01-.21-.698c0-.684.212-1.295.716-1.78a.838.838 0 01.52-.266c.308-.025.59.17.667.462.045.194.077.39.096.588z" opacity=".65"/><path fill="#FFF" d="M19.004 30.964a2.513 2.513 0 01.69-1.648c.091-.081.19-.153.297-.214.328-.218.76-.08.914.348.113.341.126.707.036 1.055a2.602 2.602 0 01-.475 1.014c-.137.18-.318.324-.528.418a.548.548 0 01-.708-.174 1.194 1.194 0 01-.226-.799z"/><path fill="#FFF" d="M24 20.945c-.043.692-.233 1.243-.653 1.705a1.22 1.22 0 01-.474.308.52.52 0 01-.6-.14.84.84 0 01-.233-.447c-.142-.755.1-1.529.65-2.078.08-.08.173-.147.275-.198.397-.206.762-.073.918.348.051.164.09.332.117.502zm-1 5.075a2.543 2.543 0 01-.544 1.494c-.14.192-.334.341-.557.432a.524.524 0 01-.68-.196 1.062 1.062 0 01-.212-.575c-.049-.653.167-1.3.602-1.802.086-.1.19-.185.307-.251.433-.256.85-.1.993.374.041.173.072.348.091.524z" opacity=".65"/><path fill="#FFF" d="M22.998 32.933c.007.595-.2 1.174-.585 1.641a1.201 1.201 0 01-.508.37.546.546 0 01-.709-.206 1.205 1.205 0 01-.177-.471 2.343 2.343 0 01.665-1.948c.108-.108.237-.195.379-.256.308-.14.592-.042.768.246.122.186.18.404.167.624zM25 29.03a2.65 2.65 0 01-.664 1.631c-.089.098-.195.18-.312.24-.43.23-.775.041-.934-.369a1.617 1.617 0 01-.06-.842 2.337 2.337 0 01.732-1.434c.056-.05.118-.093.183-.132.402-.252.746-.105.92.305.065.195.11.396.135.6z"/><path fill="#FFF" d="M25.992 18.07a2.338 2.338 0 01-.623 1.575c-.112.116-.245.21-.392.281a.596.596 0 01-.44.054.572.572 0 01-.348-.264 1.097 1.097 0 01-.179-.535 2.365 2.365 0 01.611-1.81c.131-.137.292-.246.47-.318.282-.122.531-.028.709.224.157.235.225.515.192.793zm1.007-5.04a2.396 2.396 0 01-.589 1.572 1.204 1.204 0 01-.548.365.503.503 0 01-.518-.098.875.875 0 01-.312-.564c-.12-.705.1-1.423.596-1.955.137-.163.325-.278.537-.33a.54.54 0 01.513.125c.194.18.307.426.317.684.005.067.006.134.004.2z" opacity=".25"/><path fill="#FFF" d="M26.997 20.041a2.6 2.6 0 01-.588 1.548c-.133.153-.3.274-.49.355a.536.536 0 01-.618-.101.762.762 0 01-.244-.413 2.28 2.28 0 01.626-2.127c.095-.094.209-.17.334-.223a.59.59 0 01.47-.054.567.567 0 01.353.304 1.3 1.3 0 01.157.711z" opacity=".65"/><path fill="#FFF" d="M26 25.033a2.517 2.517 0 01-.619 1.571c-.125.131-.274.24-.44.32-.311.16-.546.049-.722-.167a.89.89 0 01-.185-.409c-.122-.7.087-1.416.57-1.954a1.54 1.54 0 01.467-.33.512.512 0 01.658.14c.214.228.255.518.271.829zm1 1.95a2.746 2.746 0 01-.555 1.545 1.32 1.32 0 01-.485.394c-.351.17-.667.058-.827-.3a1.574 1.574 0 01-.116-.867c.059-.473.243-.923.535-1.305a1.17 1.17 0 01.462-.376.592.592 0 01.49-.038c.16.06.287.186.343.345.066.196.117.398.153.602z"/><path fill="#FFF" d="M29 15.997a2.48 2.48 0 01-.577 1.585 1.49 1.49 0 01-.4.326c-.375.203-.75.06-.903-.332a1.6 1.6 0 01-.11-.785c.045-.505.248-.985.58-1.378.13-.14.286-.256.46-.342.278-.141.526-.066.722.178.154.22.234.482.228.748z" opacity=".65"/><path fill="#FFF" d="M26 31.034a2.363 2.363 0 01-.592 1.544c-.115.13-.252.239-.405.324-.381.214-.769.068-.91-.345-.06-.171-.09-.35-.093-.53a2.418 2.418 0 01.642-1.673 1.04 1.04 0 01.48-.32.587.587 0 01.721.283c.133.22.157.334.157.717z"/><path fill="#FFF" d="M27.003 24.014a2.249 2.249 0 01.651-1.662c.116-.118.254-.214.407-.283a.554.554 0 01.407-.051.52.52 0 01.322.239c.095.133.158.284.184.443a2.31 2.31 0 01-.356 1.614 1.53 1.53 0 01-.617.6c-.368.175-.675.081-.876-.266a1.277 1.277 0 01-.122-.634z" opacity=".65"/><path fill="#FFF" d="M27 30.822c.045-.508.246-.992.578-1.393.086-.104.186-.196.299-.274.469-.32.959-.127 1.077.416.068.328.06.666-.021.992a2.7 2.7 0 01-.466.952 1.348 1.348 0 01-.554.425c-.3.142-.598.026-.77-.283-.104-.203-.143-.42-.143-.835zm1.006-3.972a2.501 2.501 0 01.604-1.46c.11-.12.242-.221.39-.299a.61.61 0 01.541-.05.575.575 0 01.358.393c.065.17.099.35.1.532a2.401 2.401 0 01-.648 1.679 1.43 1.43 0 01-.371.273c-.33.172-.641.068-.82-.255a1.51 1.51 0 01-.154-.814z"/><path fill="#FFF" d="M30.997 15.05a2.302 2.302 0 01-.582 1.562 1.067 1.067 0 01-.619.377.521.521 0 01-.444-.111.947.947 0 01-.34-.68 2.355 2.355 0 01.577-1.787c.13-.144.292-.26.473-.342.267-.13.464-.071.674.133a.897.897 0 01.258.569c.007.092.008.185.003.278z" opacity=".25"/><path fill="#FFF" d="M30.999 21.043a2.199 2.199 0 01-.568 1.533 1.43 1.43 0 01-.442.338c-.37.183-.6.054-.782-.196a1.036 1.036 0 01-.202-.567 2.473 2.473 0 01.525-1.676c.137-.19.33-.337.556-.425a.59.59 0 01.735.218.86.86 0 01.176.481c.002.097.002.193.002.294z"/><path fill="#FFF" d="M32 18.058a2.315 2.315 0 01-.627 1.578 1.452 1.452 0 01-.43.302.556.556 0 01-.715-.178 1.07 1.07 0 01-.221-.615c-.05-.638.17-1.269.61-1.756a1.49 1.49 0 01.424-.311.548.548 0 01.722.142c.124.14.2.313.219.495.013.118.013.234.018.343z" opacity=".65"/><path fill="#FFF" d="M30.004 10.986a2.336 2.336 0 01.497-1.498c.188-.226.447-.39.739-.469a.41.41 0 01.437.125c.121.114.21.255.261.41a2.284 2.284 0 01-.604 2.133 1.182 1.182 0 01-.37.243c-.301.143-.584.065-.776-.217a1.168 1.168 0 01-.184-.727z" opacity=".25"/><path fill="#FFF" d="M29.008 28.948c.01-.588.237-1.155.642-1.602.127-.149.297-.259.49-.318a.575.575 0 01.636.197c.14.178.217.393.219.615a2.436 2.436 0 01-.603 1.76c-.127.135-.28.247-.451.328a.544.544 0 01-.717-.16 1.162 1.162 0 01-.216-.82zm2.984-3.895c.026.572-.202 1.052-.532 1.503a1.197 1.197 0 01-.49.377.627.627 0 01-.46.041.584.584 0 01-.352-.28 1.078 1.078 0 01-.153-.552 2.379 2.379 0 01.73-1.867 1.16 1.16 0 01.352-.222.573.573 0 01.703.179c.13.151.203.338.21.532a4.647 4.647 0 00-.008.289z"/><path fill="#FFF" d="M34 20.02a2.47 2.47 0 01-.483 1.44 1.32 1.32 0 01-.558.475.583.583 0 01-.761-.203 1.141 1.141 0 01-.197-.66 2.414 2.414 0 01.577-1.642 1.53 1.53 0 01.361-.304c.434-.271.85-.09 1 .4.034.163.054.328.061.494z" opacity=".65"/><path fill="#FFF" d="M33 27.015a2.512 2.512 0 01-.551 1.519 1.35 1.35 0 01-.509.402.564.564 0 01-.664-.105.83.83 0 01-.248-.488 2.362 2.362 0 01.566-1.924c.123-.14.273-.256.442-.34a.581.581 0 01.485-.046c.16.056.285.178.338.333.068.211.115.429.141.649z"/><path fill="#FFF" d="M18.375 11.003c.425-.018.849.048 1.232.193.081.03.158.068.228.112.23.154.22.344-.035.47-.143.07-.3.12-.464.15a3.78 3.78 0 01-1.822-.087 1.849 1.849 0 01-.291-.113c-.29-.148-.3-.353-.01-.51a1.72 1.72 0 01.691-.188c.15-.02.307-.022.47-.027z" opacity=".25"/><path fill="#FFF" d="M12.317 9c.46.02.854.04 1.223.178.074.026.147.056.218.088.321.153.324.386 0 .537-.07.031-.142.056-.218.075a3.758 3.758 0 01-2.146-.073.928.928 0 01-.269-.151c-.175-.14-.17-.298.038-.402.176-.087.368-.153.57-.195.192-.03.387-.05.584-.057z" opacity=".65"/><path fill="#FFF" d="M15.558 9c-.408 0-.812-.072-1.178-.213a.99.99 0 01-.265-.148c-.077-.045-.12-.117-.115-.191.005-.075.057-.143.14-.182.11-.067.232-.12.362-.157.435-.11.897-.137 1.348-.08.224.027.444.07.658.13.122.035.235.086.333.152.22.14.213.34-.03.453-.16.076-.336.131-.52.162-.24.041-.488.053-.733.074z" opacity=".25"/><path fill="#FFF" d="M14.417 10c.4.014.793.084 1.16.205.1.036.192.081.276.135.097.049.152.132.147.22-.006.088-.071.167-.173.21a1.696 1.696 0 01-.66.194c-.58.08-1.177.024-1.713-.16a1.986 1.986 0 01-.292-.12c-.1-.044-.162-.126-.162-.214s.062-.17.162-.214c.112-.064.239-.111.374-.138.295-.05.589-.08.881-.118z" opacity=".65"/><path fill="#FFF" d="M29.399 7.007c.422-.03.847.035 1.224.19.1.037.19.088.266.15.08.05.121.13.109.21-.012.08-.076.15-.168.184a2.284 2.284 0 01-.566.196 3.602 3.602 0 01-1.733-.097 1.379 1.379 0 01-.399-.198c-.189-.14-.172-.287.03-.412.226-.13.492-.206.769-.22.156-.008.312-.009.468-.003zm-2.793 1.986a2.775 2.775 0 01-1.016-.116 1.941 1.941 0 01-.435-.194c-.215-.133-.205-.318.019-.447.106-.06.224-.105.35-.132a3.73 3.73 0 012.102.104c.072.026.14.06.201.1.237.154.231.347-.021.483a1.973 1.973 0 01-.78.2c-.145.011-.282.002-.42.002z" opacity=".25"/><path fill="#FFF" d="M19.678 10c-.485-.012-.875-.036-1.245-.178-.11-.04-.212-.09-.305-.148-.077-.044-.124-.113-.128-.187a.223.223 0 01.107-.194c.12-.083.258-.146.409-.187a3.46 3.46 0 011.167-.091c.317.015.628.079.913.188.102.04.195.09.276.153.185.147.172.323-.056.421-.21.087-.434.151-.665.193a3.385 3.385 0 01-.473.03zm-1.253-2.996a3.01 3.01 0 011.159.166c.107.041.206.096.292.161.175.14.167.311-.04.416-.175.09-.368.154-.572.192-.544.1-1.113.077-1.641-.066a1.887 1.887 0 01-.425-.17c-.271-.147-.262-.373.017-.507.252-.114.534-.18.823-.19.13-.008.258-.002.387-.002zM8.499 9c.261.04.587.074.902.142.172.043.331.111.468.201.085.049.134.126.13.207-.002.08-.055.156-.143.202a1.726 1.726 0 01-.692.208 4.03 4.03 0 01-1.39-.045 3.139 3.139 0 01-.504-.157c-.158-.048-.264-.163-.27-.294.016-.12.123-.223.273-.262a2.85 2.85 0 01.507-.138c.213-.034.433-.04.719-.064z" opacity=".65"/><path fill="#FFF" d="M7.403 7.003c.437-.019.873.052 1.263.207.164.067.334.14.334.315s-.179.247-.343.307c-.473.16-.997.207-1.504.136a4.957 4.957 0 01-.668-.129.743.743 0 01-.412-.23.2.2 0 01-.072-.17.218.218 0 01.106-.158c.073-.053.158-.097.25-.13a2.82 2.82 0 011.046-.148zm4.187.993c-.38.02-.762-.031-1.114-.148a1.313 1.313 0 01-.352-.18c-.081-.048-.127-.124-.124-.204.004-.08.057-.153.142-.197.093-.06.2-.108.313-.139a3.661 3.661 0 012.164.075c.082.03.158.069.225.116.221.16.208.333-.044.462-.247.122-.53.194-.821.21-.128.013-.253.005-.389.005z"/><path fill="#FFF" d="M14.414 6.004c.39-.02.781.034 1.142.155.085.027.165.061.239.103.284.176.274.392-.034.532a1.892 1.892 0 01-.476.145c-.53.095-1.08.079-1.6-.047a2.159 2.159 0 01-.464-.171c-.295-.149-.295-.378 0-.528.235-.112.5-.177.773-.19.138-.008.28 0 .42 0zm9.189-1.005c-.418.01-.834-.06-1.212-.205a1.132 1.132 0 01-.292-.173c-.062-.04-.099-.099-.099-.163 0-.063.037-.123.1-.162a.915.915 0 01.271-.145c.46-.17.946-.17 1.433-.129.297.02.587.086.854.193.175.074.353.164.341.341-.011.178-.204.247-.387.304a3.243 3.243 0 01-1.009.139z" opacity=".65"/><path fill="#FFF" d="M28.57 5.996a2.884 2.884 0 01-1.182-.185l-.105-.045c-.146-.069-.293-.15-.282-.317.01-.167.159-.223.302-.277.43-.147.902-.201 1.367-.157a3.333 3.333 0 011.153.296c.234.135.237.328 0 .464a1.97 1.97 0 01-.838.22 4.763 4.763 0 01-.414 0z" opacity=".25"/><path fill="#FFF" d="M19.606 4.995a3.043 3.043 0 01-1.243-.194 1.006 1.006 0 01-.24-.137c-.177-.148-.165-.31.048-.416.16-.077.333-.135.515-.17a3.52 3.52 0 011.867.108c.083.028.162.062.236.103.294.161.278.38-.03.525-.243.11-.515.174-.795.186-.119.001-.239-.005-.358-.005zm1.969 2.001a3.037 3.037 0 01-1.173-.194 1.16 1.16 0 01-.282-.147c-.084-.052-.13-.134-.118-.218.01-.084.076-.158.173-.194.124-.067.261-.117.406-.15a3.67 3.67 0 012.095.135c.165.063.331.131.324.315-.008.184-.175.246-.339.307a2.912 2.912 0 01-1.086.146z" opacity=".65"/><path fill="#FFF" d="M16.486 5.006c.382-.018.763.044 1.106.178.091.033.176.075.253.127.212.15.21.33-.026.444a2.059 2.059 0 01-.576.187 3.613 3.613 0 01-1.778-.124 1.385 1.385 0 01-.33-.161c-.088-.048-.139-.128-.135-.212.004-.084.062-.16.154-.203.097-.055.204-.099.317-.13a3.08 3.08 0 011.015-.106zm-7.059 1c.416-.023.833.038 1.21.178.184.073.374.152.362.348-.011.196-.202.251-.38.315-.298.1-.62.152-.944.15a3.4 3.4 0 01-1.293-.193c-.186-.072-.385-.15-.382-.349.003-.198.207-.267.395-.33.328-.1.681-.141 1.032-.12zm6.199-2.009a3.309 3.309 0 01-1.15-.154 1.268 1.268 0 01-.35-.184c-.174-.13-.171-.298.03-.397.197-.096.412-.166.637-.209a3.922 3.922 0 011.575.059c.154.04.3.097.433.169.124.05.201.15.199.26-.003.11-.084.209-.21.255a2.551 2.551 0 01-.89.2c-.1.008-.191 0-.274 0zm-3.045.998c-.342.02-.686-.02-1.006-.117a1.7 1.7 0 01-.444-.205c-.087-.05-.136-.131-.13-.216.005-.085.065-.161.158-.204.186-.095.392-.163.609-.2a3.828 3.828 0 011.63.079c.152.042.296.1.428.175.245.143.228.35-.03.484a2.04 2.04 0 01-.8.197c-.132.014-.28.007-.415.007zm-6.208.007c.403-.012.804.043 1.177.163.085.026.166.06.24.102.29.176.28.39-.033.524a2.35 2.35 0 01-.538.156 3.827 3.827 0 01-1.523-.051 2.97 2.97 0 01-.447-.15c-.158-.055-.256-.18-.249-.314 0-.148.15-.21.285-.261a2.817 2.817 0 011.088-.169zm12.06-3a3.3 3.3 0 011.211.2c.178.07.36.149.356.335-.005.187-.193.258-.375.316a3.689 3.689 0 01-1.44.124 2.992 2.992 0 01-.841-.189c-.168-.067-.342-.141-.344-.316-.001-.174.184-.262.366-.325.337-.11.702-.159 1.067-.145zm3.998.001c.48-.027.926.135 1.366.304.268.105.268.328.015.464-.221.11-.472.179-.733.199a3.751 3.751 0 01-1.687-.171.926.926 0 01-.307-.185.191.191 0 01-.085-.167.21.21 0 01.108-.16.908.908 0 01.25-.128 3.042 3.042 0 011.073-.156zm-19.014 4a3.07 3.07 0 011.206.188c.11.043.209.101.292.171.06.048.09.114.084.18a.224.224 0 01-.119.169c-.098.07-.213.124-.337.16a3.423 3.423 0 01-2.335-.17c-.26-.117-.298-.35.014-.496.253-.118.54-.187.835-.2.118-.008.239-.002.36-.002z"/><path fill="#FFF" d="M9.407 4.005c.436-.025.872.043 1.262.198.168.068.342.146.33.324-.011.178-.182.252-.352.315-.306.107-.639.16-.974.155a3.406 3.406 0 01-1.213-.17 1.557 1.557 0 01-.266-.118c-.272-.165-.257-.392.04-.513.25-.109.526-.173.81-.189.12-.005.241-.002.363-.002zm5.209-2.009a3.254 3.254 0 01-1.165-.164 1.14 1.14 0 01-.323-.174c-.094-.051-.143-.142-.124-.231.019-.09.1-.164.211-.188.187-.077.384-.137.587-.179a3.532 3.532 0 011.809.136c.112.04.212.098.294.17.066.05.101.12.094.191a.231.231 0 01-.13.177 1.537 1.537 0 01-.365.16 2.674 2.674 0 01-.888.102zm-3.24.012c.443-.033.888.035 1.285.195.162.068.338.13.339.319.001.188-.165.257-.336.317a2.358 2.358 0 01-.4.107 4.047 4.047 0 01-1.729-.09 1.288 1.288 0 01-.407-.205c-.19-.146-.164-.299.053-.415a2.17 2.17 0 01.884-.227c.12-.007.243 0 .311 0zM17.598.994a3.136 3.136 0 01-1.063-.135 1.583 1.583 0 01-.394-.178c-.097-.047-.15-.134-.14-.224.012-.09.086-.167.193-.198.653-.278 1.33-.349 2.028-.13.188.057.374.118.556.191.284.109.296.31.033.46a2.136 2.136 0 01-.887.217c-.105.008-.216-.003-.326-.003zm-1.603 26.987a2.3 2.3 0 00-.621-1.608 1.399 1.399 0 00-.352-.278c-.35-.189-.672-.092-.863.254a1.342 1.342 0 00-.153.76c.037.506.217.99.52 1.402.128.174.299.315.497.408a.608.608 0 00.51.045c.168-.06.3-.191.358-.356.087-.198.122-.413.104-.627z"/><path fill="#FFF" d="M13.001 15.969c-.019.622.21 1.228.642 1.69.104.11.23.198.367.263.35.169.657.059.844-.28.107-.211.156-.446.144-.681a2.426 2.426 0 00-.451-1.395 1.413 1.413 0 00-.545-.489.628.628 0 00-.5-.045.6.6 0 00-.365.335 1.18 1.18 0 00-.136.602z" opacity=".25"/><path fill="#FFF" d="M15.99 19.952a1.964 1.964 0 00-.417-1.41 1.438 1.438 0 00-.488-.438c-.42-.224-.823-.077-.982.36a1.725 1.725 0 00-.053.998c.077.417.27.808.557 1.131.102.112.22.21.35.29.462.279.968.038 1.026-.486.012-.148.014-.296.008-.445z" opacity=".25"/><path fill="#FFF" d="M15.998 36.083a2.466 2.466 0 00-.59-1.669 1.163 1.163 0 00-.577-.39.542.542 0 00-.606.206 1.033 1.033 0 00-.224.683 2.41 2.41 0 00.71 1.781 1.3 1.3 0 00.433.264c.249.103.538.01.674-.217.131-.195.194-.425.18-.658z"/><path fill="#FFF" d="M13 23.052c.02.53.207 1.043.534 1.469.133.184.316.328.528.419a.563.563 0 00.725-.194c.144-.205.218-.45.212-.698a2.38 2.38 0 00-.716-1.78.841.841 0 00-.52-.266.632.632 0 00-.667.462c-.043.194-.075.39-.096.588z" opacity=".65"/><path fill="#FFF" d="M14.996 30.964a2.513 2.513 0 00-.69-1.648 1.784 1.784 0 00-.296-.214c-.33-.218-.76-.08-.916.348a1.872 1.872 0 00-.034 1.054c.081.368.243.713.474 1.014.136.181.318.325.528.418.246.13.554.055.707-.174.17-.231.25-.514.227-.798z"/><path fill="#FFF" d="M9 20.945c.043.692.232 1.243.654 1.705.13.138.293.244.474.308a.52.52 0 00.6-.14.849.849 0 00.232-.447 2.325 2.325 0 00-.65-2.078 1.054 1.054 0 00-.274-.198c-.398-.206-.764-.073-.92.348-.051.164-.09.332-.116.502zm2 5.075c.016.541.207 1.064.545 1.495.14.191.333.341.557.431.244.12.542.034.68-.195.124-.17.198-.368.212-.576a2.487 2.487 0 00-.602-1.802 1.202 1.202 0 00-.307-.251c-.433-.256-.851-.1-.993.374a4.67 4.67 0 00-.092.524z" opacity=".65"/><path fill="#FFF" d="M11.002 32.933c-.007.595.2 1.174.585 1.641.131.165.306.292.507.37.256.125.57.034.71-.206.092-.144.152-.305.176-.471a2.333 2.333 0 00-.665-1.948 1.202 1.202 0 00-.379-.256c-.308-.14-.592-.042-.769.246-.12.187-.179.404-.165.624zM9 29.03c.028.601.262 1.176.665 1.631.088.098.194.18.312.24.43.23.773.041.932-.369.095-.27.116-.56.06-.842a2.34 2.34 0 00-.73-1.434 1.33 1.33 0 00-.183-.132c-.403-.252-.747-.105-.923.305-.064.195-.11.396-.133.6z"/><path fill="#FFF" d="M8.008 18.07c0 .58.223 1.14.624 1.575.112.116.244.211.391.281a.596.596 0 00.44.054.57.57 0 00.347-.264c.106-.161.168-.345.18-.535a2.373 2.373 0 00-.61-1.81 1.357 1.357 0 00-.473-.318c-.28-.122-.528-.028-.706.224a1.171 1.171 0 00-.193.793zm-1.005-5.04a2.39 2.39 0 00.588 1.572c.143.169.333.295.548.365a.5.5 0 00.517-.098.884.884 0 00.312-.564 2.307 2.307 0 00-.588-1.955 1.028 1.028 0 00-.537-.33.541.541 0 00-.514.125.987.987 0 00-.326.681 1.735 1.735 0 000 .204z" opacity=".25"/><path fill="#FFF" d="M7.003 20.04a2.62 2.62 0 00.588 1.55c.132.152.3.273.489.354.207.103.46.061.618-.101a.771.771 0 00.246-.413 2.287 2.287 0 00-.626-2.127 1.106 1.106 0 00-.335-.224.597.597 0 00-.466-.054.562.562 0 00-.351.298c-.123.22-.18.468-.163.718z" opacity=".65"/><path fill="#FFF" d="M8 25.036a2.53 2.53 0 00.62 1.57c.124.13.273.238.438.318.314.16.546.049.723-.167a.87.87 0 00.185-.413 2.31 2.31 0 00-.571-1.95 1.499 1.499 0 00-.464-.33.512.512 0 00-.657.14c-.211.233-.258.522-.274.832zm-1 1.947c.022.558.216 1.096.555 1.545.128.167.294.302.484.394.352.17.668.058.829-.3.118-.273.158-.573.115-.866a2.725 2.725 0 00-.535-1.306 1.193 1.193 0 00-.46-.375.593.593 0 00-.492-.039.576.576 0 00-.343.345 4.461 4.461 0 00-.153.602z"/><path fill="#FFF" d="M6 15.997c0 .576.204 1.134.577 1.585.112.13.247.241.4.326.374.203.75.06.902-.332.102-.25.14-.519.111-.785a2.467 2.467 0 00-.588-1.378 1.582 1.582 0 00-.459-.342c-.279-.141-.527-.066-.723.178-.153.221-.23.483-.22.748z" opacity=".65"/><path fill="#FFF" d="M8 31.034c.003.565.213 1.111.592 1.544.115.13.251.239.404.324.383.214.77.068.912-.345.06-.171.09-.35.092-.53a2.414 2.414 0 00-.643-1.673 1.027 1.027 0 00-.478-.32.588.588 0 00-.722.283c-.133.22-.157.334-.157.717z"/><path fill="#FFF" d="M7.997 24.01a2.242 2.242 0 00-.652-1.66 1.337 1.337 0 00-.407-.282.553.553 0 00-.405-.05.522.522 0 00-.322.238 1.086 1.086 0 00-.186.442 2.32 2.32 0 00.356 1.61c.14.254.355.465.619.607.366.173.673.08.874-.266.097-.2.139-.42.123-.64z" opacity=".65"/><path fill="#FFF" d="M7.999 30.819a2.527 2.527 0 00-.574-1.39 1.422 1.422 0 00-.3-.274c-.47-.32-.959-.127-1.079.415-.068.327-.06.665.023.99.085.344.241.669.459.956.141.185.332.332.553.424.299.142.598.026.771-.283.11-.208.157-.424.147-.838zM6.994 26.85a2.503 2.503 0 00-.605-1.46A1.427 1.427 0 006 25.091a.613.613 0 00-.542-.05.573.573 0 00-.358.393c-.064.17-.098.35-.1.532-.012.618.22 1.217.648 1.679.108.11.234.202.373.273.33.172.64.068.818-.255.127-.253.18-.534.155-.814z"/><path fill="#FFF" d="M3.003 15.054a2.286 2.286 0 00.582 1.56c.152.191.372.325.62.376a.521.521 0 00.444-.118.938.938 0 00.339-.679 2.34 2.34 0 00-.578-1.783c-.13-.143-.29-.26-.471-.341-.27-.13-.464-.071-.676.133a.9.9 0 00-.258.567c-.006.095-.007.19-.002.285z" opacity=".25"/><path fill="#FFF" d="M3.001 21.043a2.199 2.199 0 00.568 1.533c.123.139.273.254.443.338.37.183.599.054.783-.196a1.06 1.06 0 00.2-.567 2.468 2.468 0 00-.526-1.676 1.234 1.234 0 00-.556-.425.592.592 0 00-.736.218.87.87 0 00-.176.483v.292z"/><path fill="#FFF" d="M1 18.058a2.308 2.308 0 00.628 1.578c.122.126.268.228.43.302.25.129.564.05.714-.178.137-.18.214-.393.222-.615a2.358 2.358 0 00-.612-1.756 1.514 1.514 0 00-.422-.311.548.548 0 00-.722.142.877.877 0 00-.218.495c-.014.118-.014.234-.02.343z" opacity=".65"/><path fill="#FFF" d="M3.996 10.986a2.326 2.326 0 00-.498-1.498 1.444 1.444 0 00-.74-.469.407.407 0 00-.435.125.946.946 0 00-.261.41c-.182.762.044 1.56.605 2.133.105.103.23.185.369.243.302.143.585.065.778-.217a1.16 1.16 0 00.182-.727z" opacity=".25"/><path fill="#FFF" d="M4.992 28.95a2.459 2.459 0 00-.64-1.604 1.045 1.045 0 00-.492-.318.573.573 0 00-.635.197c-.14.178-.216.393-.22.614a2.434 2.434 0 00.602 1.76c.127.136.28.248.452.33.245.14.564.068.717-.161.173-.24.25-.53.216-.818zm-3.99-3.897c-.026.572.204 1.052.533 1.503.124.165.293.296.49.377.14.072.306.086.458.041a.583.583 0 00.35-.28c.103-.168.158-.358.162-.552a2.379 2.379 0 00-.73-1.867 1.195 1.195 0 00-.351-.222.571.571 0 00-.702.179.846.846 0 00-.208.532c-.004.096-.002.193-.002.289z"/><path fill="#FFF" d="M0 20.015a2.48 2.48 0 00.48 1.442c.135.205.328.37.557.475a.582.582 0 00.767-.203c.133-.197.2-.427.195-.66a2.42 2.42 0 00-.58-1.639 1.516 1.516 0 00-.362-.304c-.433-.271-.847-.09-.996.4a2.997 2.997 0 00-.061.49z" opacity=".65"/><path fill="#FFF" d="M0 27.014c.008.55.201 1.081.551 1.52.132.17.306.309.507.401.22.116.497.073.665-.104a.818.818 0 00.248-.489 2.358 2.358 0 00-.559-1.923 1.422 1.422 0 00-.456-.34.58.58 0 00-.485-.046.539.539 0 00-.337.333c-.066.212-.11.429-.134.648z"/><path fill="#141414" d="M48.65 13.175c-.044-1.2-.089-2.655-.089-4.108h-.044a53.844 53.844 0 01-1.11 3.87l-1.211 3.902h-1.76l-1.065-3.864a45.79 45.79 0 01-.9-3.9h-.03c-.06 1.349-.104 2.891-.179 4.137L42.085 17H40l.636-9.996h3.002l.976 3.338c.31 1.15.62 2.402.842 3.573h.045c.286-1.15.62-2.476.945-3.593L47.511 7h2.942L51 17h-2.202l-.148-3.825zm5.538.585c.076.988 1.01 1.459 2.078 1.459a6.236 6.236 0 002.035-.315l.292 1.624a7.006 7.006 0 01-2.664.47c-2.5 0-3.929-1.505-3.929-3.905C52 11.149 53.16 9 55.719 9 58.097 9 59 10.929 59 12.827c0 .315-.025.63-.076.94l-4.736-.007zm2.695-1.63c0-.581-.24-1.554-1.294-1.554-.964 0-1.355.912-1.415 1.553h2.71zm3.176-.451c0-.975-.029-1.805-.059-2.493h1.894l.103 1.055h.045c.478-.8 1.31-1.271 2.192-1.24.933 0 1.674.513 1.984 1.328h.03c.25-.378.567-.699.933-.943a2.478 2.478 0 011.378-.385c1.393 0 2.441 1.055 2.441 3.39V17h-2.187v-4.25c0-1.135-.34-1.79-1.066-1.79-.48.009-.899.351-1.037.847-.059.2-.089.41-.089.62V17H64.43v-4.378c0-.99-.326-1.662-1.037-1.662-.574 0-.918.48-1.052.88-.065.194-.095.4-.089.607V17H60.06v-5.321zM72 16.83c.03-.488.063-1.389.063-2.227V6h2.393v4.256h.032c.458-.64 1.26-1.053 2.33-1.053 1.843 0 3.206 1.479 3.182 3.769C80 15.657 78.237 17 76.472 17c-.897 0-1.764-.32-2.315-1.205h-.03l-.095 1.035H72zm2.456-3.173a1.73 1.73 0 00.047.412c.147.638.729 1.093 1.403 1.099 1.023 0 1.653-.763 1.653-2.106 0-1.16-.536-2.07-1.653-2.07a1.471 1.471 0 00-1.403 1.143c-.031.14-.047.284-.047.427v1.095zm8.721.103c.076.988 1.01 1.459 2.077 1.459a6.25 6.25 0 002.033-.315l.307 1.624a7.008 7.008 0 01-2.665.47c-2.498 0-3.929-1.505-3.929-3.905C81 11.149 82.16 9 84.719 9 87.097 9 88 10.929 88 12.827c0 .315-.025.63-.074.94l-4.75-.007zm2.694-1.63c0-.581-.24-1.554-1.294-1.554-.963 0-1.355.912-1.415 1.553h2.71zm3.183-.376c0-1.152-.027-1.904-.054-2.575h1.724l.066 1.439h.053c.329-1.135 1.118-1.616 1.736-1.616.141-.007.282.004.421.033v2.287a2.4 2.4 0 00-.54-.064c-.736 0-1.236.48-1.368 1.24-.027.18-.04.361-.04.543V17h-1.998v-5.246zM40.4 25.835a5.05 5.05 0 002.192.55c.907 0 1.391-.375 1.391-.945 0-.551-.417-.856-1.465-1.232-1.452-.505-2.397-1.308-2.397-2.578 0-1.489 1.244-2.63 3.304-2.63a5.355 5.355 0 012.227.442l-.443 1.586a4.136 4.136 0 00-1.827-.413c-.855 0-1.27.388-1.27.842 0 .55.493.803 1.62 1.23 1.543.571 2.268 1.378 2.268 2.605C46 26.756 44.873 28 42.475 28c-.998 0-1.982-.26-2.475-.532l.4-1.633zm13.6-1.41C54 26.877 52.26 28 50.468 28 48.508 28 47 26.713 47 24.547 47 22.382 48.425 21 50.577 21 52.63 21 54 22.411 54 24.425zm-4.857.068c0 1.15.48 2.014 1.37 2.014.81 0 1.325-.808 1.325-2.014 0-1-.383-2.013-1.325-2.013-.995 0-1.364 1.026-1.364 2.013h-.006zM55 19h2v9h-2zm8.949 6.647c0 .893.025 1.624.051 2.198h-1.696l-.091-.967h-.038c-.424.723-1.173 1.15-1.967 1.12-1.272 0-2.208-.867-2.208-2.976v-4.018h1.967v3.682c0 .993.295 1.595.976 1.595.437-.004.826-.3.977-.744a1.26 1.26 0 00.065-.461V21h1.967l-.003 4.647zM67.65 19v1.973H69v1.577h-1.35v2.487c0 .831.174 1.212.744 1.212.187 0 .373-.019.557-.057l.012 1.62c-.396.14-.81.203-1.225.185-.608 0-1.116-.24-1.412-.592-.347-.409-.52-1.07-.52-2.045v-2.817H65v-1.578h.806v-1.498L67.65 19zm4.35.988c0 .545-.4.974-1.018.974-.596 0-.994-.436-.982-.974-.012-.564.386-.986.994-.986a.94.94 0 01.714.269c.19.187.296.447.292.717zM70.05 28v-6.268h1.888V28H70.05zM80 24.425C80 26.877 78.259 28 76.468 28 74.508 28 73 26.713 73 24.547 73 22.382 74.426 21 76.578 21 78.63 21 80 22.411 80 24.425zm-4.857.068c0 1.15.48 2.014 1.372 2.014.808 0 1.324-.808 1.324-2.014 0-1-.384-2.013-1.324-2.013-.997 0-1.368 1.026-1.368 2.013h-.004zm5.909-1.155c0-.854-.026-1.582-.052-2.183h1.693l.09.938h.038c.432-.695 1.16-1.106 1.935-1.093 1.282 0 2.244.924 2.244 2.94V28h-1.95v-3.794c0-.881-.274-1.488-.986-1.488-.453.008-.85.331-.98.8a1.576 1.576 0 00-.077.533v3.948h-1.955v-4.661zm7.311 2.692c.543.306 1.149.48 1.77.508.622 0 .871-.219.871-.562 0-.343-.201-.508-.972-.769-1.366-.467-1.887-1.221-1.887-2.018 0-1.249 1.055-2.188 2.691-2.188.642-.01 1.279.12 1.865.383l-.366 1.442a3.204 3.204 0 00-1.416-.385c-.501 0-.784.205-.784.548 0 .316.257.48 1.068.77 1.257.437 1.784 1.083 1.797 2.071 0 1.25-.972 2.17-2.865 2.17-.87 0-1.636-.193-2.135-.467l.363-1.503z"/></g></svg>