<svg xmlns="http://www.w3.org/2000/svg" width="100" height="21" viewBox="0 0 100 21">
    <defs>
        <filter id="nbjxul5una" color-interpolation-filters="auto">
            <feColorMatrix in="SourceGraphic" values="0 0 0 0 0.090196 0 0 0 0 0.070588 0 0 0 0 0.121569 0 0 0 1.000000 0"/>
        </filter>
    </defs>
    <g fill="none" fill-rule="evenodd">
        <g filter="url(#nbjxul5una)" transform="translate(-320.000000, -5149.000000)">
            <g>
                <g fill="#141414">
                    <path d="M100 5.333L94.658 17.38c-.381 1.108-1.068 2.07-1.984 2.808-.839.517-1.83.813-2.9.813-.61 0-1.22-.074-1.83-.296-.535-.147-1.069-.443-1.45-.739l1.22-2.364c.23.221.535.443.916.517.305.148.687.222.992.222.382 0 .84-.074 1.145-.296.381-.296.61-.665.763-1.108l.076-.074L86.57 5.333h3.51l3.281 7.686 3.358-7.686H100zm-16.58.439c.773-.292 1.624-.439 2.398-.439v2.998c-.387 0-.619-.073-.774-.073-.85-.073-1.702.22-2.321.804-.62.658-.929 1.463-.851 2.34v5.265H78.39V5.553h3.327v1.462c.387-.585 1.006-.95 1.702-1.243zM72.311 16.667h3.376V5.333h-3.376v11.334zm.29-13.488c-.393-.294-.628-.81-.628-1.325 0-.515.235-.957.627-1.325s1.02-.588 1.568-.515c.549 0 1.097.147 1.568.515.391.295.627.81.627 1.252 0 .515-.236 1.03-.627 1.324-.392.368-1.02.59-1.568.516-.549.147-1.098-.074-1.568-.442zm-6.22 10.311c.62-.674.93-1.499.853-2.323.078-.825-.233-1.724-.854-2.324-1.242-1.124-3.182-1.124-4.347 0-.62.6-.931 1.5-.853 2.324-.078.824.232 1.724.853 2.323 1.165 1.124 3.105 1.124 4.347 0zm1.322-7.603c.922.444 1.613 1.184 2.151 2.073.538.962.768 2 .768 3.11 0 1.11-.23 2.147-.768 3.11-.461.888-1.23 1.554-2.151 2.073-.922.518-1.921.74-2.997.74-1.383.074-2.766-.444-3.688-1.48v1.332h-3.227V1h3.458v5.553c.922-.962 2.228-1.48 3.534-1.407.999 0 1.998.297 2.92.74zm-15.505 7.23c.621-.59.932-1.474.854-2.284.078-.81-.233-1.693-.854-2.283-.543-.589-1.397-.883-2.173-.883-.854 0-1.63.294-2.173.883-.621.59-.932 1.473-.854 2.283-.078.81.31 1.694.854 2.283.543.59 1.397.884 2.173.884.854 0 1.63-.368 2.173-.884zm-5.476 2.83c-.91-.441-1.746-1.179-2.277-2.063-.532-.885-.836-1.99-.836-3.023 0-1.032.304-2.138.836-3.023.531-.884 1.366-1.622 2.277-2.064 2.05-1.032 4.556-1.032 6.606 0 .91.442 1.746 1.18 2.277 2.064.532.885.836 1.99.836 3.023 0 1.032-.304 2.138-.836 3.023-.531.884-1.366 1.622-2.277 2.064-2.05.958-4.48.958-6.606 0zm-6.101-9.67c.912 1.047 1.368 2.392 1.292 3.812v6.578h-3.42v-6.054c.076-.748-.152-1.42-.608-2.018-.38-.449-.989-.673-1.673-.673s-1.444.224-1.9.747c-.532.673-.76 1.42-.684 2.243v5.755h-3.42v-6.054c0-1.794-.76-2.691-2.204-2.691-.684 0-1.369.224-1.9.747-.533.673-.76 1.42-.685 2.243v5.755H22V5.23h3.268v1.346c.456-.524.988-.897 1.596-1.121.685-.3 1.369-.374 2.053-.374.76 0 1.52.15 2.204.448.684.3 1.216.822 1.596 1.42.456-.598 1.14-1.12 1.824-1.42.76-.299 1.596-.523 2.432-.523 1.445-.075 2.66.449 3.649 1.27zM16.358 2c.321 0 .562.322.642.645v15.71c0 .403-.32.645-.642.645H8.901c2.967-2.74 4.65-6.607 4.65-10.635 0-.483 0-.967-.08-1.45-.146.389-.308.77-.486 1.145-.01-.191-.03-.388-.062-.585-.78 2.054-2.013 3.912-3.581 5.399.856-1.833 1.323-3.896 1.323-5.96 0-.483 0-.966-.08-1.45-.13.346-.273.685-.427 1.02-.015-.135-.021-.268-.021-.401-.517 1.361-1.233 2.637-2.13 3.793-.508.606-1.066 1.179-1.672 1.71.802-1.851 1.203-3.785 1.203-5.8 0-.483 0-.966-.08-1.45-.104.269-.214.534-.332.796L7.119 5c-.163.422-.346.836-.546 1.24-1.482 2.7-3.748 4.935-6.493 6.315V2.564C.08 2.242.4 2 .722 2zM0 15.133c2.244-.62 4.333-1.702 6.036-3.172l.069-.168.15-.125-.077.167-.142.126c-.677 1.49-1.591 2.86-2.742 4.06l-.08.08-.327.32.008-.002-.11.106c2.105-.508 4.14-1.56 5.853-2.963l.206-.175.025-.052.129-.109-.022.05-.132.111-.121.253C7.635 15.807 5.999 17.681 3.946 19H.642C.24 19 0 18.678 0 18.355z" transform="translate(320.000000, 4375.000000) translate(0.000000, 774.000000)"/>
                </g>
            </g>
        </g>
    </g>
</svg>
