<svg xmlns="http://www.w3.org/2000/svg" width="91" height="14" viewBox="0 0 91 14">
    <defs>
        <filter id="4sx7z29y7a" color-interpolation-filters="auto">
            <feColorMatrix in="SourceGraphic" values="0 0 0 0 0.090196 0 0 0 0 0.070588 0 0 0 0 0.121569 0 0 0 1.000000 0"/>
        </filter>
    </defs>
    <g fill="none" fill-rule="evenodd">
        <g filter="url(#4sx7z29y7a)" transform="translate(-320.000000, -4375.000000)">
            <g fill="#000" fill-rule="nonzero">
                <path d="M16.321 10.457L16.334.195 20.589.177 20.608 13.839 13.206 13.839 4.325 3.532 4.305 13.803.038 13.839 0 .195.057.177 7.459.177zM68.307.195L68.345 13.845 63.813 13.845 63.813.237 63.851.202 68.326.202zM47.989 6.781L48.008 6.799 48.556 6.367 55.826.195 61.862.195 53.547 6.816 53.566 6.887 62.916 13.803 56.333 13.839 48.024 6.855 47.987 6.908 47.987 13.842 43.451 13.842 43.451.195 47.989.195 47.989 6.781zM36.375.035c1.889.07 3.91.196 4.916 1.947.233.494.343 1.03.321 1.57v7.42c-.108 1.008-.75 1.898-1.705 2.368-1.976.805-4.368.592-6.666.657-2.713-.035-5.501.13-8.025-.302-1.21-.195-2.212-.992-2.618-2.081l-.152-.863.033-7.87c.17-1.023.884-1.895 1.893-2.313C25.807 0 27.55.071 29.242 0l7.133.035zm-8.9 3.375c-.377.07-.856.212-.912.591 0 2.036-.057 4.106.037 6.121.132.343.535.308.818.396H35.6c.704-.053 1.542.107 1.92-.556V4.201l-.057-.45c-.113-.266-.403-.302-.63-.373h-9.37l.012.032zM90.968 13.785v.059h-5.031c-.454-.785-.913-1.538-1.329-2.32l-.094-.035h-8.88l-1.36 2.313-5.034.043L77.19.195h5.898L91 13.803l-.032-.018zM80.093 3.625L77.304 8.49h5.584c-.934-1.62-1.89-3.265-2.795-4.865z" transform="translate(320.000000, 4375.000000)"/>
            </g>
        </g>
    </g>
</svg>
