<svg xmlns="http://www.w3.org/2000/svg" width="11" height="16" viewBox="0 0 11 16"><g fill="none" fill-rule="evenodd"><g><g><path d="M0 0H24V24H0z" transform="translate(-327.000000, -3972.000000) translate(320.000000, 3968.000000)"/><path fill="#000" d="M12 4v4.21h-1.667C9.778 9.054 9.5 10.317 9.5 12c0 1.684.278 2.947.833 3.79H12V20c-3.333-.28-5-2.947-5-8s1.667-7.72 5-8zm4.264 4C17.368 9.116 18 10.62 18 12.222c0 1.515-.565 2.941-1.56 4.035l-.192.202-.708-.707c.93-.931 1.46-2.188 1.46-3.53 0-1.247-.458-2.42-1.268-3.328l-.18-.19.712-.704zm-1.401 1.428c.724.742 1.137 1.736 1.137 2.794 0 1.004-.373 1.951-1.03 2.679l-.156.163-.704-.71c.566-.56.89-1.32.89-2.132 0-.722-.256-1.403-.71-1.94l-.143-.156.716-.698zm-1.41 1.42c.349.368.547.856.547 1.374 0 .48-.17.935-.473 1.292l-.12.129-.703-.71c.188-.188.296-.44.296-.711 0-.217-.069-.421-.193-.59l-.08-.097.726-.688z" transform="translate(-327.000000, -3972.000000) translate(320.000000, 3968.000000)"/></g></g></g></svg>