<svg xmlns="http://www.w3.org/2000/svg" width="15" height="13" viewBox="0 0 15 13">
    <g fill="none" fill-rule="evenodd">
        <g>
            <g>
                <path d="M0 0H24V24H0z" transform="translate(-421.000000, -4069.000000) translate(416.000000, 4064.000000)"/>
                <path fill="#000" fill-rule="nonzero" d="M9.644 17.8c1.08 0 2.09-.17 3.03-.51.94-.34 1.746-.798 2.418-1.374.672-.576 1.252-1.234 1.74-1.974s.85-1.516 1.086-2.328c.236-.812.354-1.626.354-2.442 0-.144-.004-.272-.012-.384.6-.432 1.104-.956 1.512-1.572-.552.248-1.132.408-1.74.48.656-.392 1.1-.952 1.332-1.68-.6.36-1.24.608-1.92.744-.6-.64-1.34-.96-2.22-.96-.832 0-1.544.296-2.136.888-.592.592-.888 1.304-.888 2.136 0 .24.024.472.072.696-1.24-.064-2.4-.374-3.48-.93s-2-1.302-2.76-2.238c-.272.472-.408.98-.408 1.524 0 .52.12 1.002.36 1.446.24.444.568.802.984 1.074-.488-.016-.944-.144-1.368-.384v.048c0 .728.23 1.37.69 1.926.46.556 1.038.902 1.734 1.038-.256.072-.52.108-.792.108-.192 0-.384-.02-.576-.06.2.608.558 1.108 1.074 1.5.516.392 1.102.596 1.758.612-1.104.864-2.36 1.296-3.768 1.296-.232 0-.472-.012-.72-.036 1.416.904 2.964 1.356 4.644 1.356z" transform="translate(-421.000000, -4069.000000) translate(416.000000, 4064.000000)"/>
            </g>
        </g>
    </g>
</svg>
